<svg xmlns="http://www.w3.org/2000/svg" viewBox="0 0 103 103"><defs><style>.a{fill:#fff;stroke:#e6e6e6;stroke-miterlimit:10;stroke-width:3px}.b{fill:#394563}.c{fill:#ed1c24}</style></defs><title>Asset 381</title><circle class="a" cx="51.5" cy="51.5" r="50"/><path class="b" d="M71.715 33.593a4.38 4.38 0 0 0-.9-1.27 1.282 1.282 0 0 0-.89-.37h-5.03l-2.12-3.76c-.86-1.5-1.74-2.27-6.15-2.75-3-.31-8.16-.32-8.38-.32s-5.39.01-8.38.32c-4.42.49-5.31 1.25-6.17 2.75l-2.11 3.76h-5.03a1.306 1.306 0 0 0-.9.37 3.242 3.242 0 0 0-1.1 2.64 1.841 1.841 0 0 0 1.16 1.38.792.792 0 0 0 .09.04 3.942 3.942 0 0 0-1.62 2.04 3.383 3.383 0 0 0-1.5 2.83v9.88a3.43 3.43 0 0 0 3.44 3.42h6.47a3.403 3.403 0 0 0 3.3-2.55h12.77a1.926 1.926 0 0 1-.01-.24v-.1c0-.56.03-1.12.08-1.67l.06-.52h-15.13a23.26 23.26 0 0 1-7.19-.96.741.741 0 0 1 .23-.16l8.12-.8h14.32a13.77 13.77 0 0 1 .62-2.01c.07-.18.13-.35.21-.52h-13.71a2.972 2.972 0 0 0-1.15-1.44l-.09-.06a11.277 11.277 0 0 0-2.28-1.19 47.69 47.69 0 0 0-6.32-2.14l.06-.68c.18-.7.58-1.34 2.13-1.34a3.686 3.686 0 0 0 1.56-.34h.03a5.114 5.114 0 0 0 1.94-1.71c2 .8 6.4 1.5 16.09 1.5 3.08 0 5.62-.07 7.72-.19a3.425 3.425 0 0 1 .33-.24 16.574 16.574 0 0 1 3.99-2.06 16.052 16.052 0 0 1 3.03-.79 15.046 15.046 0 0 1 2.25-.23c.22-.02.44-.02.67-.02a17.551 17.551 0 0 1 5.69.95.185.185 0 0 0 .02-.07 2.244 2.244 0 0 0-.22-1.38zm-43.53 8.37c1.13.35 2.56.86 4.25 1.54a10.27 10.27 0 0 1 2.11 1.1c1.12.84.67 1.37.39 1.57l-3.74.42a5.185 5.185 0 0 1-5.63-4.03l-.31-1.39c.13.03 1.18.24 2.93.79zm20.05-6.87c-7.3 0-12.93-.57-14.86-1.17l2.52-4.48c.36-.63.62-1.09 4.24-1.48 2.85-.31 8.06-.31 8.11-.31s5.24 0 8.11.31c3.6.39 3.85.83 4.22 1.48l2.48 4.4.05.08c-1.93.6-7.56 1.17-14.87 1.17z"/><path class="c" d="M64.316 36.123a12.072 12.072 0 0 1-1.87.55 44.715 44.715 0 0 1-6.49.76c-.26.17-.5.37-.75.57a15.908 15.908 0 0 0-1.71 1.57 16.612 16.612 0 0 0-2.41 3.19 15.78 15.78 0 0 0-1.11 2.26h3.76a13.504 13.504 0 0 1 1.7-2.51 14.086 14.086 0 0 1 4.71-3.63c.22-.11.44-.21.67-.3a11.427 11.427 0 0 1 1.16-.42 12.546 12.546 0 0 1 1.24-.33 14.009 14.009 0 0 1 2.06-.3 3.378 3.378 0 0 1 .45-.01 5.363 5.363 0 0 1-1.41-1.4zm8.16-.88c-.18-.07-.37-.14-.56-.2a17.551 17.551 0 0 0-5.69-.95c-.23 0-.45 0-.67.02a15.046 15.046 0 0 0-2.25.23 16.052 16.052 0 0 0-3.03.79 16.574 16.574 0 0 0-3.99 2.06 3.425 3.425 0 0 0-.33.24c-.26.17-.5.37-.75.57a15.908 15.908 0 0 0-1.71 1.57 16.612 16.612 0 0 0-2.41 3.19 15.78 15.78 0 0 0-1.11 2.26c-.08.17-.14.34-.21.52a13.77 13.77 0 0 0-.62 2.01c-.05.17-.08.35-.12.52-.1.46-.17.93-.23 1.4l-.06.52c-.05.55-.08 1.11-.08 1.67v.1a1.926 1.926 0 0 0 .01.24c0 .18 0 .35.01.52a16.766 16.766 0 0 0 .27 2.27 15.015 15.015 0 0 0 .58 2.31 16.774 16.774 0 0 0 1.33 3.03 17.59 17.59 0 0 0 2.54 3.5l-1.22 1.23-1.06-1.06-14.46 14.46 3.71 3.71 14.46-14.46-1.04-1.04 1.26-1.26a17.57 17.57 0 1 0 17.43-29.97zm-6.25 30.58a14.166 14.166 0 0 1-11.34-5.69c-.25-.34-.49-.68-.71-1.05-.16-.26-.32-.53-.46-.8a11.62 11.62 0 0 1-.56-1.18 13.771 13.771 0 0 1-.66-2l-.06-.27c0-.01-.01-.03-.01-.04a14.11 14.11 0 0 1-.33-2.27 1.711 1.711 0 0 1-.01-.32.614.614 0 0 1-.01-.14v-.06a1.937 1.937 0 0 1-.01-.24v-.1a13.138 13.138 0 0 1 .1-1.67c.02-.18.05-.35.08-.52.03-.24.08-.48.13-.72.04-.23.1-.45.16-.67v-.01c.04-.18.09-.35.14-.52a14.452 14.452 0 0 1 .79-2.01c.09-.18.17-.35.27-.52a13.504 13.504 0 0 1 1.7-2.51 14.086 14.086 0 0 1 4.71-3.63c.22-.11.44-.21.67-.3a11.427 11.427 0 0 1 1.16-.42 12.546 12.546 0 0 1 1.24-.33 14.009 14.009 0 0 1 2.06-.3 3.378 3.378 0 0 1 .45-.01 4.108 4.108 0 0 1 .5-.02 13.597 13.597 0 0 1 1.93.13 13.2 13.2 0 0 1 1.57.31 13.364 13.364 0 0 1 3.01 1.15.037.037 0 0 1 .03.01 14.16 14.16 0 0 1-6.54 26.72z"/><path class="b" d="M72.765 39.103a.037.037 0 0 0-.03-.01 13.364 13.364 0 0 0-3.01-1.15 2.727 2.727 0 0 1 .89 1.64l.07.87c-.78.19-1.82.48-3.1.89-2.06.63-4.38 1.47-6.87 2.49a17.649 17.649 0 0 0-3.77 1.97 4.803 4.803 0 0 0-1.79 2.28h-2.62c-.06.22-.12.44-.16.67-.09.41-.16.82-.21 1.24a13.138 13.138 0 0 0-.1 1.67v.1c0 .1 0 .2.01.3h5.35l12.79 1.26a1.378 1.378 0 0 1 .39.27c-1.67.73-6.53 1.51-11.33 1.51h-6.78a13.771 13.771 0 0 0 .66 2 11.62 11.62 0 0 0 .56 1.18c.14.27.3.54.46.8h1.55a5.433 5.433 0 0 0 5.24 4.03h10.21a5.4 5.4 0 0 0 5.42-5.4v-15.69a14.21 14.21 0 0 0-3.83-2.92zm-.46 5.1a8.181 8.181 0 0 1-8.89 6.35l-5.89-.66c-.44-.33-1.15-1.15.62-2.48a14.966 14.966 0 0 1 3.33-1.74 90 90 0 0 1 6.71-2.43c2.76-.85 4.41-1.2 4.6-1.23z"/></svg>