<svg xmlns="http://www.w3.org/2000/svg" viewBox="0 0 103 103"><defs><style>.a,.b{fill:#fff;stroke:#e6e6e6;stroke-miterlimit:10;stroke-width:3px}.b{fill:none;stroke:#394563}.c{fill:#ed1c24}</style></defs><title>Asset 481</title><circle class="a" cx="51.5" cy="51.5" r="50"/><path class="b" d="M24.843 61.418v-13.43a6.44 6.44 0 0 1 6.43-6.44h24.26a6.423 6.423 0 0 1 3.883 1.3"/><path class="b" d="M35.436 41.553l7.971 9.509 7.971-9.509M43.407 51.062v10.36"/><circle class="b" cx="43.407" cy="27.304" r="9.203"/><path class="b" d="M36.093 21.715c1.99 2.28 6.07 3.84 10.78 3.84a18.843 18.843 0 0 0 5.4-.75M32.198 61.422v-6.54"/><path class="c" d="M34.03 80.964l4.973 4.972 19.392-19.392-1.42-1.421 3.004-3.005 2.992 2.992.994-.994a5.867 5.867 0 0 0 .937 7.048l6.625 6.626 14.905-14.905-6.626-6.625a5.888 5.888 0 0 0-6.994-.991l.94-.94-7.98-7.98 2.062-2.061-5.99-5.99-14.905 14.904 5.99 5.99 2.062-2.062 2.83 2.83-3.006 3.004-1.392-1.392zm33.03-15.952l1.08-1.08-.984-1.174-.916-.917 4.243-4.243 1.996 1.996 1.08-1.08a2.859 2.859 0 0 1 4.088-.095l4.467 4.466-10.587 10.587-4.466-4.466a2.826 2.826 0 0 1 0-3.994zm-15.803-11.81l10.587-10.587 1.672 1.673-3.172 3.172 1.996 1.996-4.243 4.243-1.996-1.996-3.172 3.172z"/></svg>