<svg xmlns="http://www.w3.org/2000/svg" viewBox="0 0 103 103"><defs><style>.a{fill:#fff;stroke:#e6e6e6}.a,.c,.d,.e{stroke-miterlimit:10}.a,.c,.e{stroke-width:3px}.b{fill:#394563}.c,.d,.e{fill:none}.c{stroke:#ed1c24}.d{stroke:#21c876;stroke-width:2px}.e{stroke:#394563}</style></defs><title>Asset 431</title><circle class="a" cx="51.5" cy="51.5" r="50"/><path class="b" d="M57.182 61.546h21.375v4.803H57.182zM75.713 43.531v1.29H72.93v-2.62h1.91v-5.55H61.032v5.55h1.91v7.392h.871a3.857 3.857 0 0 0-2.78 3.698v6.138H74.84V53.29a3.843 3.843 0 0 0-2.831-3.698h.92V46.82h2.784v1.316h17.965V43.53zm-2.873 9.76v4.138h-9.808V53.29a1.873 1.873 0 0 1 1.939-1.85h1v-1.849h3.93v.85l.09 1h1a1.852 1.852 0 0 1 1.849 1.85zm0-13.09H69.9v1.849h-3.93V40.2h-2.939v-1.549h9.808z"/><path class="c" d="M21.16 28.382h33.197v46.237H21.16z"/><path class="d" d="M43.708 59.734l-6.507 6.507-3.254-3.253"/><path class="e" d="M26.145 34.64h23.031M26.145 41.09h23.031M26.145 47.08h23.031"/></svg>