<svg xmlns="http://www.w3.org/2000/svg" viewBox="0 0 103 103"><defs><style>.a,.b{fill:#fff;stroke:#e6e6e6;stroke-miterlimit:10;stroke-width:3px}.b{fill:none;stroke:#394563}.c{fill:#ed1c24}</style></defs><title>Asset 491</title><circle class="a" cx="51.5" cy="51.5" r="50"/><path class="b" d="M24.935 61.418v-13.43a6.44 6.44 0 0 1 6.43-6.44h24.27"/><path class="b" d="M35.529 41.553l7.971 9.509 7.971-9.509M43.5 51.062v10.36"/><circle class="b" cx="43.5" cy="27.304" r="9.203"/><path class="b" d="M36.186 21.715c1.99 2.28 6.07 3.84 10.78 3.84a18.843 18.843 0 0 0 5.4-.75M32.291 61.422v-6.54"/><path class="c" d="M69.943 38.632c-.18-.07-.37-.14-.56-.2a17.552 17.552 0 0 0-5.69-.95c-.23 0-.45 0-.67.02a15.044 15.044 0 0 0-2.25.23 16.054 16.054 0 0 0-3.03.79 16.576 16.576 0 0 0-3.99 2.06 3.436 3.436 0 0 0-.33.24c-.26.17-.5.37-.75.57a15.904 15.904 0 0 0-1.71 1.57 16.61 16.61 0 0 0-2.41 3.19 15.78 15.78 0 0 0-1.11 2.26c-.08.17-.14.34-.21.52a13.762 13.762 0 0 0-.62 2.01c-.05.17-.08.35-.12.52-.1.46-.17.93-.23 1.4l-.06.52c-.05.55-.08 1.11-.08 1.67v.1a1.926 1.926 0 0 0 .01.24c0 .18 0 .35.01.52a16.747 16.747 0 0 0 .27 2.27 15.016 15.016 0 0 0 .58 2.31 16.774 16.774 0 0 0 1.33 3.03 17.588 17.588 0 0 0 2.54 3.5l-1.22 1.23-1.06-1.06-14.46 14.46 3.71 3.71 14.46-14.46-1.04-1.04 1.26-1.26a17.57 17.57 0 1 0 17.43-29.97zm-6.25 30.58a14.166 14.166 0 0 1-11.34-5.69c-.25-.34-.49-.68-.71-1.05-.16-.26-.32-.53-.46-.8a11.61 11.61 0 0 1-.56-1.18 13.78 13.78 0 0 1-.66-2l-.06-.27c0-.01-.01-.03-.01-.04a14.11 14.11 0 0 1-.33-2.27 1.711 1.711 0 0 1-.01-.32.614.614 0 0 1-.01-.14v-.06a1.926 1.926 0 0 1-.01-.24v-.1a13.127 13.127 0 0 1 .1-1.67c.02-.18.05-.35.08-.52.03-.24.08-.48.13-.72.04-.23.1-.45.16-.67v-.01c.04-.18.09-.35.14-.52a14.46 14.46 0 0 1 .79-2.01c.09-.18.17-.35.27-.52a13.499 13.499 0 0 1 1.7-2.51 14.085 14.085 0 0 1 4.71-3.63c.22-.11.44-.21.67-.3a11.433 11.433 0 0 1 1.16-.42 12.543 12.543 0 0 1 1.24-.33 14.01 14.01 0 0 1 2.06-.3 3.38 3.38 0 0 1 .45-.01 4.106 4.106 0 0 1 .5-.02 13.598 13.598 0 0 1 1.93.13 13.202 13.202 0 0 1 1.57.31 13.366 13.366 0 0 1 3.01 1.15.036.036 0 0 1 .03.01 14.16 14.16 0 0 1-6.54 26.72z"/></svg>