<svg xmlns="http://www.w3.org/2000/svg" viewBox="0 0 120.86011 70.71002"><defs><style>.a{fill:#1993fc}.a,.c{fill-rule:evenodd}.b,.c{fill:#21c876}</style></defs><title>Asset 81</title><path class="a" d="M94.83 34.52l-.7-6.44h-.93l-29.78-.07s3.84-7.88 6.13-10.24a6.742 6.742 0 0 1 5.79-2.42c1.27 0 7.33.09 11.13.15l3.15.05.07-2.76s-2.54.09-5.84.15c-2.88.04-6.33.05-9.19-.04-6.12-.2-7.45 3.09-9.15 5.88s-6.13 9.77-6.54 9.5c-.4-.27-.4-3.3-.4-3.3s-2.42-.74-6.2.74c-3.77 1.48-3.63 2.83-3.63 3.5s3.1.74 5.52 1.35c2.43.6 4.11-.14 1.41 1.88-2.69 2.02-3.03 4.92-3.36 6-.34 1.08 0 8.15 0 8.15a1.591 1.591 0 0 1-.88.27c-.51.05-.04 9.49.21 15.27.07 1.79.13 3.22.13 3.92 0 2.97 1.28 2.16 1.28 2.16s7.2-.14 9.56-.14 2.9-.4 3.03-1.21a13.894 13.894 0 0 0 .04-1.86c-.03-1.24-.1-2.59-.1-2.59l-9.7-.94 22.94-.18 9.67-.08 1.47-.01.05-1.49.15-4.1h-7.61s-5.46.07-5.86-1.01c-.41-1.08-3.5-10.37-2.7-12.93a2.566 2.566 0 0 1 3.1-1.95l15.71-.11 1-.01 1.58-.01zM64.02 54.99c-.74.2-4.96.41-5.77-.07-.81-.47-1.12-1.69-.81-2.07.3-.37 5.91-.54 6.75.11.38.34.58 1.83-.17 2.03zm7.27-7.25c-.71.14-8.55-.03-10.04 0-1.48.03-2.4-.71-3.81-3.32-1.42-2.61-1.02-3.69-.17-4.2.84-.51 1.58-.41 5.98.98 4.39 1.39 7.77 2.04 8.58 5.9 0 0 .17.5-.54.64z"/><path class="a" d="M93.16 42.65l-.63 2.23-.03.09-2.21 7.82s-.76.03-1.9.05c-3.24.07-9.52.1-9.82-.65a27.387 27.387 0 0 1-1.75-7.41c-.06-2.63.88-2.09.88-2.09z"/><path class="a" d="M118.4 32.93a6.853 6.853 0 0 0-4.19-.51s0 2.06-.27 2.24c-.28.18-3.27-4.54-4.42-6.43-1.16-1.89-2.05-4.12-6.2-3.98-1.64.06-3.57.05-5.31.03-2.66-.03-4.86-.11-4.86-.11l.05 1.87s2.74-.04 5.32-.07c1.94-.04 3.8-.06 4.34-.06a4.554 4.554 0 0 1 3.92 1.64c1.55 1.59 4.15 6.93 4.15 6.93l-11.16.02-4.94.02h-2l-.03 5.1-.01 2.83h.45l5.83-.03 2.61-.01a1.73 1.73 0 0 1 2.09 1.32c.55 1.73-1.55 8.02-1.82 8.75s-3.97.68-3.97.68h-5.15l.11 3.06.03.72 23.06.19-6.56.63a29.989 29.989 0 0 0-.05 3.01c.1.55.46.82 2.06.82 1.59 0 6.47.09 6.47.09s.86.55.86-1.45c0-2.01.69-12.95.23-12.99a1.039 1.039 0 0 1-.59-.19 43.613 43.613 0 0 0 0-5.51 6.644 6.644 0 0 0-2.28-4.06c-1.82-1.36-.68-.86.96-1.27s3.73-.46 3.73-.91c0-.46.1-1.37-2.46-2.37zm-3.97 19.76a11.177 11.177 0 0 1-3.91.04c-.5-.13-.37-1.14-.12-1.37.58-.44 4.37-.32 4.58-.07.2.25 0 1.08-.55 1.4zm.55-7.11c-.96 1.77-1.58 2.27-2.59 2.25-1-.03-6.31.09-6.79 0s-.36-.44-.36-.44c.55-2.61 2.83-3.05 5.81-3.99 2.97-.94 3.47-1.01 4.04-.66.57.34.85 1.08-.11 2.84z"/><path class="a" d="M101.86 45.82a18.36 18.36 0 0 1-1.19 5.02c-.15.38-2.58.46-4.7.46-1.71 0-3.23-.05-3.23-.05l.46-6.84h8.07s.63-.36.59 1.41z"/><path class="b" d="M99.77 34.5a35.28 35.28 0 0 0-1.25-8.53c-.16-.57-.33-1.13-.51-1.69a35.357 35.357 0 1 0-66.99 22.64 34.484 34.484 0 0 0 3.09 6.59 35.291 35.291 0 0 0 54.38 7.71c.53-.48 1.04-.98 1.52-1.5a35.043 35.043 0 0 0 2.93-3.5 33.016 33.016 0 0 0 2.02-3.06c.35-.61.69-1.23 1.01-1.86a34.652 34.652 0 0 0 2.63-6.89c.18-.66.33-1.32.47-1.99a35.104 35.104 0 0 0 .71-7.07c0-.28 0-.57-.01-.85zm-7.24 10.38l-.03.09a28.934 28.934 0 0 1-4.11 7.87 25.51 25.51 0 0 1-2.3 2.78 29.483 29.483 0 0 1-7.27 5.68 29.17 29.17 0 0 1-13.14 3.71c-.41.02-.83.03-1.25.03a29.685 29.685 0 1 1 0-59.37 29.5 29.5 0 0 1 19.42 7.27 28.757 28.757 0 0 1 2.62 2.56 29.446 29.446 0 0 1 6.73 12.58 28.495 28.495 0 0 1 .89 6.44c.02.27.02.55.02.83a28.477 28.477 0 0 1-.31 4.26 24.582 24.582 0 0 1-.56 2.84 21.898 21.898 0 0 1-.71 2.43z"/><path class="c" d="M30.22 56.01c-2.17 1.41-5.14 3.32-9.2 5.93C5.84 71.71 4.56 72.81.52 64.34c-3.41-7.15 10.51-10.38 25.81-15.72zM33.55 53.87c-.73.47-1.65 1.07-2.84 1.83l-3.84-7.26c1.06-.38 2.13-.77 3.2-1.17zM36.19 52.17l-2.08 1.34a.353.353 0 0 0-.08.05l-3.43-6.48c.14-.06.28-.11.42-.16 1.26-.48 2.51-.97 3.76-1.49zM59.702 12.042c-9.91.36-17.476 10.09-16.936 11.171s-2.702 9.73 16.936-11.17z"/><path class="c" d="M33.97 55.73a1.666 1.666 0 0 1-.82 1 1.685 1.685 0 0 1-2.27-.71l-.17-.32-3.84-7.26-.11-.21a1.685 1.685 0 0 1 .7-2.28 1.664 1.664 0 0 1 .78-.19 1.793 1.793 0 0 1 .51.07 1.717 1.717 0 0 1 .99.82l.33.62 3.48 6.6.31.58a1.628 1.628 0 0 1 .11 1.28z"/></svg>