<svg xmlns="http://www.w3.org/2000/svg" viewBox="0 0 174.8035 32.48279"><defs><style>.a{fill:#1993fc}.b,.c{fill:#21c876}.c{fill-rule:evenodd}</style></defs><title>Asset 71</title><path class="a" d="M173.637 4.648l1.167 4.376h-3.145v19.123h-4.797V9.024h-3.144l1.232-4.376zm-13.906 0a2.664 2.664 0 0 1 2.091.778 2.993 2.993 0 0 1 .697 2.074v11.248a5.003 5.003 0 0 1-.146 1.248 2.266 2.266 0 0 1-.535.988 2.645 2.645 0 0 1-1.037.665 4.66 4.66 0 0 1-1.62.243h-4.02v6.255h-4.667V4.648zm-4.57 4.116v9.238h2.334q.292 0 .373-.113a.655.655 0 0 0 .08-.373V9.218q0-.453-.42-.454zm-16.239-4.116h9.14l.811 4.376h-5.121v5.575h3.89v4.052h-3.89v5.12h4.927l-.81 4.376h-8.947zm-1.945 23.5h-4.797V8.698h-2.56v19.448h-4.798V4.648h12.155zm-19.869 0a3.878 3.878 0 0 1-2.852-.843 3.942 3.942 0 0 1-.81-2.788V7.533a2.792 2.792 0 0 1 .794-2.14 2.757 2.757 0 0 1 1.96-.745h6.192l.81 4.376h-4.506q-.421 0-.421.454v13.84q0 .454.421.454h4.506l-.843 4.375zm-12.933-13.42h.713l2.4-10.08h4.861l-2.82 10.826 2.788 12.673h-5.154l-1.848-9.69h-.94v9.69h-4.797V4.648h4.798zm-11.57 3.923h-3.89v-4.052h3.89V9.478q0-.454-.422-.454h-4.506l.81-4.376h6.192a2.757 2.757 0 0 1 1.96.745 2.793 2.793 0 0 1 .795 2.14v16.984a3.942 3.942 0 0 1-.81 2.788 3.877 3.877 0 0 1-2.853.842H88.52l-.843-4.375h4.506q.421 0 .421-.454zM29.851 4.648a2.664 2.664 0 0 1 2.091.778A2.993 2.993 0 0 1 32.64 7.5v11.248a5.007 5.007 0 0 1-.146 1.248 2.266 2.266 0 0 1-.535.988 2.646 2.646 0 0 1-1.037.665 4.661 4.661 0 0 1-1.62.243h-4.02v6.255h-4.667V4.648zm-4.57 4.116v9.238h2.334c.194 0 .319-.038.373-.113a.655.655 0 0 0 .08-.373V9.218q0-.453-.42-.454zm-13.645 0q-.422 0-.422.454v14.327a.656.656 0 0 0 .081.373q.081.113.373.113h1.782q.292 0 .373-.113a.656.656 0 0 0 .081-.373V9.218q0-.453-.421-.454zM18.67 24.81a4.89 4.89 0 0 1-.162 1.28 2.662 2.662 0 0 1-.551 1.054 2.754 2.754 0 0 1-1.037.729 4.157 4.157 0 0 1-1.62.275H9.853a4.16 4.16 0 0 1-1.621-.275 2.755 2.755 0 0 1-1.037-.73 2.662 2.662 0 0 1-.551-1.053 4.89 4.89 0 0 1-.162-1.28v-6.061H4.797v9.4H0v-23.5h4.797v10.048h1.686V7.695a3.147 3.147 0 0 1 .762-2.22 3.14 3.14 0 0 1 2.414-.827h5.835a3.14 3.14 0 0 1 2.414.827 3.148 3.148 0 0 1 .762 2.22z"/><path class="b" d="M86.056 24.809a4.89 4.89 0 0 1-.161 1.28 2.662 2.662 0 0 1-.551 1.054 2.755 2.755 0 0 1-1.038.729 4.158 4.158 0 0 1-1.62.275H77.24a4.157 4.157 0 0 1-1.62-.275 2.753 2.753 0 0 1-1.038-.73 2.662 2.662 0 0 1-.55-1.053 4.89 4.89 0 0 1-.163-1.28V7.695a3.147 3.147 0 0 1 .762-2.22 3.14 3.14 0 0 1 2.415-.827h5.834a3.14 3.14 0 0 1 2.415.827 3.147 3.147 0 0 1 .761 2.22zM79.023 8.764q-.422 0-.421.454v14.327a.656.656 0 0 0 .08.373q.081.113.373.113h1.783q.292 0 .373-.113a.658.658 0 0 0 .081-.373V9.218q0-.453-.421-.454zm-7.617-4.116l1.167 4.376h-3.144v19.123h-4.797V9.024h-3.145l1.232-4.376zM59.964 13.95a3.136 3.136 0 0 1-.34 1.508 1.944 1.944 0 0 1-1.28.891 1.765 1.765 0 0 1 1.41.68 2.348 2.348 0 0 1 .437 1.394v6.094a3.942 3.942 0 0 1-.81 2.788 3.878 3.878 0 0 1-2.853.842h-8.524V4.648h9.173a2.665 2.665 0 0 1 2.09.778 2.993 2.993 0 0 1 .697 2.074zm-4.44 5.219a.632.632 0 0 0-.195-.535.845.845 0 0 0-.519-.146h-2.139v5.543h2.366a.506.506 0 0 0 .39-.113.572.572 0 0 0 .097-.373zM52.67 8.764v6.159h2.204a.54.54 0 0 0 .584-.616V9.218q0-.453-.422-.454zM38.863 21.503h2.172l-1.07-8.33zm-.518 3.727l-.422 2.917h-4.732l4.246-23.499h5.024l4.246 23.5h-4.732l-.421-2.918z"/><path class="c" d="M23.853 31.185h131.942s-48.883 1.298-68.35 1.298-63.592-1.298-63.592-1.298M2.55 1.298h166.983S107.667 0 83.03 0 2.55 1.298 2.55 1.298"/></svg>