<svg xmlns="http://www.w3.org/2000/svg" viewBox="0 0 103 103"><defs><style>.a,.b{fill:#fff;stroke:#e6e6e6;stroke-width:3px;stroke-miterlimit:10}.b{fill:none;stroke:#ed1c24;stroke-width:2px}.c{fill:#394563}</style></defs><title>Asset 321</title><circle class="a" cx="51.5" cy="51.5" r="50"/><path class="b" d="M68.462 37.951a17.79 17.79 0 0 1 .102 10.7M71.888 36.243a21.495 21.495 0 0 1 .11 14.125M75.236 34.569a25.35 25.35 0 0 1 .12 17.482M34.436 48.651a17.79 17.79 0 0 1 .102-10.7M31.002 50.368a21.495 21.495 0 0 1 .11-14.125M27.645 52.05a25.35 25.35 0 0 1 .119-17.481"/><path class="c" d="M61.198 30.008H41.975a2.513 2.513 0 0 0-2.513 2.513V70.48a2.513 2.513 0 0 0 2.513 2.513h19.223a2.513 2.513 0 0 0 2.512-2.513V32.521a2.513 2.513 0 0 0-2.512-2.513zm-9.612 40.826a2.158 2.158 0 1 1 2.158-2.158 2.158 2.158 0 0 1-2.158 2.158zm10.566-6.252H41.02V35.095h21.132z"/></svg>