<svg xmlns="http://www.w3.org/2000/svg" viewBox="0 0 103 103"><defs><style>.a,.b{fill:#fff;stroke:#e6e6e6;stroke-width:3px;stroke-miterlimit:10}.b{fill:none;stroke:#ed1c24;stroke-width:2px}.c{fill:#394563}</style></defs><title>Asset 301</title><circle class="a" cx="51.5" cy="51.5" r="50"/><path class="b" d="M49.915 31.316l8.081 8.081h3.267l2.814 2.814v2.45l-2.678-2.677-2.978 1.06-1.061 2.979 2.678 2.677h-2.451l-2.813-2.813v-3.268l-8.082-8.081"/><path class="b" d="M56.309 37.711l-8.081-8.082v-3.267l-2.814-2.814h-2.45l2.677 2.678-1.06 2.978-2.979 1.061-2.677-2.678v2.451l2.814 2.814h3.267l8.081 8.081"/><path class="b" d="M46.656 34.505l-6.99 6.99a2.577 2.577 0 0 0 0 3.65l2.84 2.84a2.595 2.595 0 0 0 3.65 0l7-6.99M53.116 34.525h.01l5.94-5.99M60.795 28.848l-1.728-.313-.313-1.727 4.003-3.297 1.334 1.334-3.296 4.003zM51.173 38.639l-7.956 7.956M49.029 36.495l-7.956 7.956"/><path class="c" d="M70.5 68.899a3.13 3.13 0 0 0-1.263-1.598l.07-.029.006-.002a1.476 1.476 0 0 0 .914-1.087 2.58 2.58 0 0 0-.88-2.09 1 1 0 0 0-.707-.293h-3.975l-1.676-2.975c-.677-1.189-1.378-1.79-4.863-2.17-2.376-.253-6.454-.255-6.626-.255-.173 0-4.26.002-6.628.255-3.494.38-4.195.982-4.873 2.174L38.327 63.8H34.35a1 1 0 0 0-.707.293 2.57 2.57 0 0 0-.875 2.089 1.476 1.476 0 0 0 .918 1.087l.07.03a3.12 3.12 0 0 0-1.276 1.615 2.687 2.687 0 0 0-1.19 2.236v7.81a2.718 2.718 0 0 0 2.72 2.71h5.12a2.707 2.707 0 0 0 2.61-2.02h19.51a2.715 2.715 0 0 0 2.62 2.02h5.12a2.718 2.718 0 0 0 2.72-2.71v-7.81a2.689 2.689 0 0 0-1.21-2.251zm-28.76-7.084c.283-.5.489-.86 3.346-1.171 2.26-.241 6.373-.244 6.414-.244.041 0 4.145.003 6.412.244 2.849.31 3.044.653 3.337 1.167l1.96 3.478h-.001l.038.067c-1.52.476-5.973.924-11.756.924-5.772 0-10.219-.446-11.747-.92zm-7.444 7.963c.142-.555.458-1.058 1.684-1.058a2.99 2.99 0 0 0 1.231-.27c.007-.003.016-.001.023-.005a4.025 4.025 0 0 0 1.539-1.353c1.582.633 5.059 1.188 12.717 1.188 7.652 0 11.134-.554 12.718-1.187a4.013 4.013 0 0 0 1.555 1.355c.008.004.017.002.024.006A2.929 2.929 0 0 0 67 68.72c1.186 0 1.542.442 1.71 1.156l.036.435c-.396.102-.913.244-1.554.444a44.368 44.368 0 0 0-3.448 1.252 8.708 8.708 0 0 0-1.88.99 2.348 2.348 0 0 0-.897 1.133H42.03a2.351 2.351 0 0 0-.908-1.137.866.866 0 0 0-.072-.047 9 9 0 0 0-1.8-.942 38.717 38.717 0 0 0-4.999-1.693zm-.725 2.41l-.244-1.098c.1.02.93.19 2.31.62.9.28 2.03.68 3.36 1.22a7.898 7.898 0 0 1 1.67.87c.89.66.53 1.08.31 1.24l-2.953.33a4.095 4.095 0 0 1-4.453-3.183zM63.03 77.65H39.97a18.458 18.458 0 0 1-5.683-.757.714.714 0 0 1 .185-.132l6.416-.63h21.214l6.408.63a.67.67 0 0 1 .193.132 18.405 18.405 0 0 1-5.673.757zm6.527-5.463a4.095 4.095 0 0 1-4.454 3.183l-2.953-.33c-.22-.16-.58-.58.31-1.24a7.898 7.898 0 0 1 1.67-.87c1.33-.54 2.46-.94 3.36-1.22 1.38-.43 2.21-.6 2.31-.62z"/></svg>