<svg xmlns="http://www.w3.org/2000/svg" viewBox="0 0 103 103"><defs><style>.a{fill:#fff;stroke:#e6e6e6}.a,.c{stroke-miterlimit:10;stroke-width:3px}.b{fill:#394563}.c{fill:none;stroke:#ed1c24}</style></defs><title>Asset 311</title><circle class="a" cx="51.5" cy="51.5" r="50"/><path class="b" d="M75.531 47.162a3.96 3.96 0 0 0-1.597-2.02l.088-.038.008-.003a1.867 1.867 0 0 0 1.157-1.374 3.264 3.264 0 0 0-1.113-2.644 1.265 1.265 0 0 0-.894-.37H68.15l-2.12-3.764c-.856-1.503-1.742-2.264-6.15-2.744-3.005-.32-8.163-.323-8.381-.323-.219 0-5.39.003-8.384.323-4.418.481-5.305 1.242-6.163 2.75l-2.115 3.757h-5.03a1.265 1.265 0 0 0-.894.37 3.25 3.25 0 0 0-1.108 2.643 1.867 1.867 0 0 0 1.162 1.375l.088.038a3.945 3.945 0 0 0-1.613 2.042 3.399 3.399 0 0 0-1.506 2.828v9.879a3.438 3.438 0 0 0 3.44 3.428h6.477a3.424 3.424 0 0 0 3.3-2.555h24.679a3.434 3.434 0 0 0 3.313 2.555h6.476a3.438 3.438 0 0 0 3.44-3.428v-9.879a3.4 3.4 0 0 0-1.53-2.846zm-36.377-8.96c.36-.632.619-1.088 4.234-1.482 2.857-.305 8.06-.309 8.112-.309.052 0 5.242.004 8.11.31 3.603.391 3.85.825 4.221 1.475l2.478 4.4.048.085c-1.923.602-7.555 1.168-14.87 1.168-7.3 0-12.924-.564-14.858-1.165zm-9.415 10.07c.18-.7.58-1.337 2.13-1.337a3.781 3.781 0 0 0 1.558-.34c.009-.004.02-.003.03-.007a5.091 5.091 0 0 0 1.945-1.712c2.002.801 6.399 1.503 16.085 1.503 9.679 0 14.083-.7 16.086-1.501a5.076 5.076 0 0 0 1.968 1.714c.009.004.02.002.03.006a3.704 3.704 0 0 0 1.534.337c1.5 0 1.95.56 2.163 1.462l.045.55c-.5.13-1.154.31-1.965.562a56.12 56.12 0 0 0-4.361 1.584 11.015 11.015 0 0 0-2.377 1.252 2.97 2.97 0 0 0-1.136 1.433H39.52a2.974 2.974 0 0 0-1.148-1.438 1.082 1.082 0 0 0-.09-.06 11.385 11.385 0 0 0-2.278-1.19 48.97 48.97 0 0 0-6.323-2.143zm-.917 3.049l-.308-1.388c.127.025 1.176.24 2.922.784a54.59 54.59 0 0 1 4.25 1.543 9.99 9.99 0 0 1 2.112 1.1c1.126.835.67 1.367.392 1.569l-3.734.418a5.18 5.18 0 0 1-5.634-4.026zm37.261 6.909H36.916a23.346 23.346 0 0 1-7.188-.957.903.903 0 0 1 .234-.167l8.115-.798H64.91l8.105.797a.847.847 0 0 1 .244.168 23.28 23.28 0 0 1-7.176.957zm8.256-6.91a5.18 5.18 0 0 1-5.634 4.027l-3.734-.418c-.279-.202-.734-.734.392-1.568a9.991 9.991 0 0 1 2.112-1.1 54.571 54.571 0 0 1 4.25-1.544c1.745-.544 2.795-.759 2.922-.784z"/><path class="c" d="M86.17 51.5A34.67 34.67 0 1 0 51.5 86.17 34.601 34.601 0 0 0 86.17 51.5zM30.626 79.181l42.851-54.498"/></svg>