<svg xmlns="http://www.w3.org/2000/svg" viewBox="0 0 103 103"><defs><style>.a,.b,.c{stroke-miterlimit:10}.a{stroke:#e6e6e6;fill:#fff;stroke-width:3px}.b,.c{fill:none;stroke-width:2px}.b{stroke:#21c876}.c{stroke:#ed1c24}.d{fill:#394563}.e{fill:#ed1c24}</style></defs><title>Asset 281</title><circle class="a" cx="51.5" cy="51.5" r="50"/><path class="b" d="M75.593 30.586l-6.508 6.508-3.254-3.254"/><path class="c" d="M35.083 30.586l-6.507 6.508M28.576 30.586l6.507 6.508"/><path class="d" d="M90.71 52.64a3.13 3.13 0 0 0-1.263-1.598l.07-.03.005-.002a1.476 1.476 0 0 0 .915-1.086 2.58 2.58 0 0 0-.88-2.09 1 1 0 0 0-.707-.293h-3.975l-1.676-2.976c-.678-1.188-1.378-1.79-4.863-2.17-2.376-.252-6.454-.255-6.626-.255-.173 0-4.26.003-6.628.256-3.494.38-4.195.982-4.873 2.174l-1.672 2.97H54.56a1 1 0 0 0-.707.294 2.57 2.57 0 0 0-.875 2.088 1.476 1.476 0 0 0 .918 1.087l.07.03a3.12 3.12 0 0 0-1.276 1.615 2.687 2.687 0 0 0-1.19 2.236v7.81a2.718 2.718 0 0 0 2.72 2.71h5.12a2.707 2.707 0 0 0 2.61-2.02h19.51a2.715 2.715 0 0 0 2.62 2.02h5.12a2.718 2.718 0 0 0 2.72-2.71v-7.81a2.689 2.689 0 0 0-1.21-2.25zm-28.76-7.085c.283-.499.488-.86 3.346-1.17 2.26-.242 6.372-.245 6.414-.245.041 0 4.144.003 6.412.244 2.849.31 3.044.653 3.337 1.167l1.96 3.479h-.001l.038.067c-1.52.476-5.973.924-11.756.924-5.772 0-10.219-.446-11.747-.921zm-7.444 7.963c.142-.555.458-1.057 1.684-1.057a2.99 2.99 0 0 0 1.23-.27c.008-.003.017-.001.024-.005a4.025 4.025 0 0 0 1.539-1.354c1.582.634 5.059 1.189 12.717 1.189 7.652 0 11.133-.554 12.717-1.187a4.013 4.013 0 0 0 1.556 1.355c.008.003.017.002.024.005a2.929 2.929 0 0 0 1.213.267c1.186 0 1.542.442 1.71 1.155l.036.436c-.396.101-.913.244-1.554.444a44.368 44.368 0 0 0-3.448 1.252 8.708 8.708 0 0 0-1.88.99 2.348 2.348 0 0 0-.897 1.133H62.24a2.351 2.351 0 0 0-.908-1.137.869.869 0 0 0-.072-.047 9 9 0 0 0-1.8-.942 38.715 38.715 0 0 0-4.999-1.694zm-.725 2.41l-.244-1.098c.1.02.93.19 2.31.62.9.28 2.03.68 3.36 1.22a7.899 7.899 0 0 1 1.67.87c.89.66.53 1.08.31 1.24l-2.953.331a4.095 4.095 0 0 1-4.453-3.183zM83.24 61.39H60.18a18.458 18.458 0 0 1-5.683-.756.714.714 0 0 1 .185-.132l6.416-.631h21.214l6.408.63a.67.67 0 0 1 .193.133 18.406 18.406 0 0 1-5.673.756zm6.527-5.462a4.095 4.095 0 0 1-4.454 3.183l-2.953-.33c-.22-.16-.58-.58.31-1.24a7.899 7.899 0 0 1 1.67-.87c1.33-.54 2.46-.94 3.36-1.22 1.38-.43 2.21-.6 2.31-.62z"/><path class="e" d="M50.29 52.64a3.13 3.13 0 0 0-1.263-1.598l.07-.03.006-.002a1.476 1.476 0 0 0 .914-1.086 2.58 2.58 0 0 0-.88-2.09 1 1 0 0 0-.707-.293h-3.975l-1.676-2.976c-.677-1.188-1.378-1.79-4.863-2.17-2.375-.252-6.454-.255-6.626-.255-.173 0-4.26.003-6.628.256-3.494.38-4.195.982-4.873 2.174l-1.672 2.97H14.14a1 1 0 0 0-.707.294 2.57 2.57 0 0 0-.875 2.088 1.476 1.476 0 0 0 .918 1.087l.07.03a3.12 3.12 0 0 0-1.276 1.615 2.687 2.687 0 0 0-1.19 2.236v7.81a2.718 2.718 0 0 0 2.72 2.71h5.12a2.707 2.707 0 0 0 2.61-2.02h19.51a2.715 2.715 0 0 0 2.62 2.02h5.12a2.718 2.718 0 0 0 2.72-2.71v-7.81a2.689 2.689 0 0 0-1.21-2.25zm-28.76-7.085c.283-.499.489-.86 3.346-1.17 2.26-.242 6.373-.245 6.414-.245.041 0 4.145.003 6.412.244 2.849.31 3.044.653 3.337 1.167L43 49.03h-.001l.038.067c-1.52.476-5.973.924-11.756.924-5.772 0-10.219-.446-11.747-.921zm-7.444 7.963c.142-.555.458-1.057 1.684-1.057a2.99 2.99 0 0 0 1.231-.27c.007-.003.016-.001.023-.005a4.025 4.025 0 0 0 1.539-1.354c1.582.634 5.059 1.189 12.717 1.189 7.652 0 11.134-.554 12.718-1.187a4.013 4.013 0 0 0 1.555 1.355c.008.003.017.002.024.005a2.929 2.929 0 0 0 1.213.267c1.187 0 1.542.442 1.71 1.155l.036.436c-.396.101-.913.244-1.554.444a44.368 44.368 0 0 0-3.448 1.252 8.708 8.708 0 0 0-1.88.99 2.348 2.348 0 0 0-.897 1.133H21.82a2.351 2.351 0 0 0-.908-1.137.858.858 0 0 0-.072-.047 9 9 0 0 0-1.8-.942 38.715 38.715 0 0 0-4.999-1.694zm-.725 2.41l-.244-1.098c.1.02.93.19 2.31.62.9.28 2.03.68 3.36 1.22a7.899 7.899 0 0 1 1.67.87c.89.66.53 1.08.31 1.24l-2.953.331a4.095 4.095 0 0 1-4.453-3.183zM42.82 61.39H19.76a18.458 18.458 0 0 1-5.683-.756.714.714 0 0 1 .185-.132l6.416-.631h21.214l6.408.63a.67.67 0 0 1 .193.133 18.405 18.405 0 0 1-5.673.756zm6.527-5.462a4.095 4.095 0 0 1-4.454 3.183l-2.953-.33c-.22-.16-.58-.58.31-1.24a7.899 7.899 0 0 1 1.67-.87c1.33-.54 2.46-.94 3.36-1.22 1.38-.43 2.21-.6 2.31-.62z"/></svg>