<svg xmlns="http://www.w3.org/2000/svg" viewBox="0 0 103 103"><defs><style>.a{fill:#fff;stroke:#e6e6e6;stroke-miterlimit:10;stroke-width:3px}.b{fill:#ed1c24}.c{fill:#394563}</style></defs><title>Asset 271</title><circle class="a" cx="51.5" cy="51.5" r="50"/><path class="b" d="M54.026 52.64a3.13 3.13 0 0 0-1.263-1.598l.07-.03.006-.002a1.476 1.476 0 0 0 .914-1.086 2.58 2.58 0 0 0-.88-2.09 1 1 0 0 0-.707-.293h-3.975l-1.676-2.975c-.677-1.189-1.377-1.79-4.863-2.17-2.375-.253-6.453-.256-6.626-.256-.173 0-4.26.003-6.628.256-3.493.38-4.195.982-4.873 2.174l-1.672 2.97h-3.977a1 1 0 0 0-.707.294 2.57 2.57 0 0 0-.875 2.088 1.476 1.476 0 0 0 .918 1.087l.07.03a3.12 3.12 0 0 0-1.275 1.615 2.687 2.687 0 0 0-1.19 2.236v7.81a2.718 2.718 0 0 0 2.719 2.71h5.12a2.707 2.707 0 0 0 2.61-2.02h19.51a2.715 2.715 0 0 0 2.62 2.02h5.12a2.718 2.718 0 0 0 2.72-2.71v-7.81a2.689 2.689 0 0 0-1.21-2.25zm-28.76-7.085c.284-.499.489-.86 3.347-1.17 2.259-.242 6.372-.245 6.413-.245.041 0 4.145.003 6.412.244 2.849.31 3.044.653 3.337 1.167l1.96 3.479.037.067c-1.52.476-5.973.924-11.756.924-5.772 0-10.218-.446-11.747-.921zm-7.444 7.963c.143-.555.458-1.057 1.684-1.057a2.99 2.99 0 0 0 1.231-.27c.008-.003.016-.001.024-.005a4.025 4.025 0 0 0 1.538-1.354c1.582.634 5.059 1.189 12.717 1.189 7.652 0 11.134-.554 12.718-1.187a4.013 4.013 0 0 0 1.555 1.355c.008.003.017.002.025.005a2.929 2.929 0 0 0 1.212.267c1.187 0 1.542.442 1.71 1.155l.036.436c-.395.101-.913.244-1.553.444a44.368 44.368 0 0 0-3.449 1.252 8.708 8.708 0 0 0-1.88.99 2.348 2.348 0 0 0-.897 1.133H25.555a2.351 2.351 0 0 0-.908-1.137.859.859 0 0 0-.072-.047 9 9 0 0 0-1.8-.942 38.716 38.716 0 0 0-4.999-1.694zm-.725 2.41l-.244-1.098c.1.02.93.19 2.31.62.9.28 2.03.68 3.36 1.22a7.898 7.898 0 0 1 1.67.87c.89.66.53 1.08.31 1.24l-2.952.331a4.095 4.095 0 0 1-4.454-3.183zm29.459 5.462h-23.06a18.458 18.458 0 0 1-5.683-.756.714.714 0 0 1 .185-.132l6.416-.631h21.214l6.408.63a.67.67 0 0 1 .193.133 18.406 18.406 0 0 1-5.673.756zm6.527-5.462a4.095 4.095 0 0 1-4.454 3.183l-2.953-.33c-.22-.16-.58-.58.31-1.24a7.898 7.898 0 0 1 1.67-.87c1.33-.54 2.46-.94 3.36-1.22 1.38-.43 2.21-.6 2.31-.62z"/><path class="c" d="M57.181 60.586h21.375v4.803H57.181zM75.713 42.571v1.29H72.93v-2.62h1.91v-5.55H61.032v5.55h1.91v7.392h.871a3.857 3.857 0 0 0-2.78 3.699v6.137H74.84v-6.137a3.843 3.843 0 0 0-2.831-3.7h.92v-2.77h2.784v1.315h17.965v-4.606zm-2.873 9.76v4.138h-9.808v-4.137a1.873 1.873 0 0 1 1.939-1.85h1v-1.85h3.93v.85l.09 1h1a1.852 1.852 0 0 1 1.849 1.85zM69.9 39.242v1.849h-3.93v-1.85h-2.939v-1.549h9.808v1.55z"/></svg>