<svg xmlns="http://www.w3.org/2000/svg" viewBox="0 0 103 103"><defs><style>.a,.b{fill:#fff;stroke:#e6e6e6;stroke-width:3px;stroke-miterlimit:10}.b{fill:none;stroke:#394563;stroke-width:2px}.c{fill:#ed1c24}</style></defs><title>Asset 471</title><circle class="a" cx="51.5" cy="51.5" r="50"/><path class="b" d="M55.921 44.599h7.249M34.515 67.491h29.959v4.334H34.515zM58.726 37.454v-5.488H40.469v5.488h4.544v2.86h-1.59v8.57h1.59v2.86h-.138a4.406 4.406 0 0 0-4.406 4.405v7.944h18.257V56.15a4.406 4.406 0 0 0-4.406-4.406h-.138v-2.859h1.59v-8.57h-1.59v-2.86zM63.17 42.604h24.685v4.029H63.17zM54.182 40.313h-9.169M54.182 48.884h-9.169"/><path class="c" d="M27.502 40.086l.669 1.357 1.498.218-1.084 1.056.256 1.492-1.339-.705-1.34.705.256-1.492-1.084-1.056 1.498-.218.67-1.357zM25.334 55.622l.67 1.357 1.498.218-1.084 1.056.256 1.492-1.34-.705-1.339.705.256-1.492-1.084-1.056 1.498-.218.669-1.357zM67.461 51.5l.67 1.357 1.498.218-1.084 1.056.256 1.491-1.34-.704-1.339.704.256-1.491-1.084-1.056 1.498-.218.669-1.357zM34.515 44.201l1.244 2.521 2.781.404-2.012 1.962.475 2.77-2.488-1.308-2.488 1.308.475-2.77-2.012-1.962 2.781-.404 1.244-2.521zM73.654 57.281l1.244 2.521 2.781.404-2.012 1.962.475 2.77-2.488-1.308-2.488 1.308.475-2.77-2.012-1.962 2.781-.404 1.244-2.521z"/></svg>