<svg xmlns="http://www.w3.org/2000/svg" viewBox="0 0 103 103"><defs><style>.a{fill:#fff;stroke:#e6e6e6}.a,.b,.c,.d,.f{stroke-miterlimit:10}.a,.b,.d,.f{stroke-width:3px}.b,.c,.d,.f{fill:none}.b{stroke:#ed1c24}.c{stroke:#21c876;stroke-width:2px}.d{stroke:#394563}.e{fill:#394563}.f{stroke:red}</style></defs><title>Asset 451</title><circle class="a" cx="51.5" cy="51.5" r="50"/><path class="b" d="M43.743 35.529v-7.54h33.2v46.24h-33.2v-7.54"/><path class="c" d="M66.296 59.343l-6.508 6.508-3.253-3.254"/><path class="d" d="M48.733 34.25h23.031M48.733 40.699h23.031M48.733 46.69h23.031M25.558 35.528h23.057V66.69H25.558z"/><path class="e" d="M46.016 47.758H28.082V38.36h17.934zm-15.61-2.324h13.287v-4.75H30.406z"/><path class="d" d="M28.082 52.368h3.591M42.425 52.368h3.591M35.401 52.368h3.591M28.082 57.021h3.591M42.425 57.021h3.591M35.401 57.021h3.591M28.082 61.674h3.591M42.425 61.674h3.591M35.401 61.674h3.591"/><path class="f" d="M42.275 43.059h-2.456M38.202 43.059h-2.456M34.129 43.059h-2.456"/></svg>