<svg xmlns="http://www.w3.org/2000/svg" viewBox="0 0 103 103"><defs><style>.a,.b,.c{stroke-miterlimit:10;stroke-width:3px}.a{stroke:#e6e6e6;fill:#fff}.b,.c{fill:none}.b{stroke:#394563}.c{stroke:#ed1c24}</style></defs><title>Asset 501</title><circle class="a" cx="51.5" cy="51.5" r="50"/><path class="b" d="M20.745 61.418v-13.43a6.442 6.442 0 0 1 6.44-6.44h24.26a6.427 6.427 0 0 1 5.64 3.34"/><path class="b" d="M31.344 41.553l7.972 9.509 7.971-9.509M39.316 51.062v10.36"/><circle class="b" cx="39.316" cy="27.304" r="9.203"/><path class="b" d="M32.002 21.715c1.99 2.28 6.07 3.84 10.78 3.84a18.843 18.843 0 0 0 5.4-.75M28.107 61.422v-6.54"/><path class="c" d="M45.133 54.144h37.134v22.891H45.133z"/><path class="c" d="M49.502 54.144h28.397v12.454H49.502zM63.7 62.844v6.826M57.085 44.758h13.23v9.184h-13.23z"/></svg>