<svg xmlns="http://www.w3.org/2000/svg" viewBox="0 0 103 103"><defs><style>.a{fill:#fff;stroke:#e6e6e6}.a,.b,.c,.d{stroke-miterlimit:10}.a,.b,.d{stroke-width:3px}.b,.c,.d{fill:none}.b{stroke:#ed1c24}.c{stroke:#21c876;stroke-width:2px}.d{stroke:#394563}.e{fill:#ed1c24}</style></defs><title>Asset 461</title><circle class="a" cx="51.5" cy="51.5" r="50"/><path class="b" d="M45.17 70.039v4.19h33.2v-46.24h-33.2v4.19"/><path class="c" d="M67.723 59.342l-6.508 6.507-3.253-3.253"/><path class="d" d="M50.16 34.249h23.031M73.19 40.699H55.57M73.19 46.689H57.98"/><circle class="d" cx="38.356" cy="51.108" r="20.116"/><path class="e" d="M36.038 58.15a1.922 1.922 0 0 1 .664-1.507 2.618 2.618 0 0 1 3.308 0 2.04 2.04 0 0 1 0 3.013 2.618 2.618 0 0 1-3.308 0 1.922 1.922 0 0 1-.664-1.507zm4.042-3.843h-3.385l-.533-12.335h4.45z"/></svg>