<?xml version="1.0" standalone="no"?>
<!DOCTYPE svg PUBLIC "-//W3C//DTD SVG 20010904//EN"
 "http://www.w3.org/TR/2001/REC-SVG-20010904/DTD/svg10.dtd">
<svg version="1.0" xmlns="http://www.w3.org/2000/svg"
 width="768.000000pt" height="768.000000pt" viewBox="0 0 768.000000 768.000000"
 preserveAspectRatio="xMidYMid meet">
<metadata>
Created by potrace 1.11, written by Peter Selinger 2001-2013
</metadata>
<g transform="translate(0.000000,768.000000) scale(0.100000,-0.100000)"
fill="#000000" stroke="none">
<path d="M3977 6064 c-1 -1 -42 -5 -90 -9 -48 -3 -96 -8 -105 -10 -9 -1 -39
-6 -67 -9 -27 -4 -66 -11 -85 -16 -19 -5 -48 -11 -65 -14 -25 -5 -126 -34
-225 -66 -128 -41 -336 -144 -478 -236 -320 -209 -594 -517 -767 -862 -53
-106 -128 -292 -139 -344 -3 -13 -14 -57 -25 -98 -21 -74 -35 -148 -46 -225
-3 -22 -8 -56 -11 -75 -3 -19 -7 -109 -8 -200 -5 -256 18 -432 83 -660 21 -71
27 -106 20 -111 -7 -4 15 -58 64 -150 165 -318 267 -465 451 -657 352 -365
834 -604 1331 -659 113 -13 482 -9 560 6 39 7 82 14 97 16 95 13 348 89 453
136 28 13 52 24 55 24 10 2 137 68 205 108 80 46 217 142 290 203 48 40 52 42
113 39 34 -1 65 2 69 8 5 8 8 43 12 118 1 9 13 29 28 45 15 16 56 65 92 109
35 44 62 70 59 58 -5 -20 -2 -23 25 -24 39 -1 546 -6 999 -10 302 -3 393 -7
296 -14 -18 -2 -55 -5 -83 -8 -27 -4 -81 -9 -120 -12 -115 -10 -107 1 -107
-155 0 -112 -1 -112 260 -116 114 -1 238 -4 275 -5 37 -1 72 2 78 8 11 11 15
65 25 288 3 88 7 187 9 220 2 33 4 138 5 234 2 175 1 182 -34 194 -5 1 -8 77
-7 167 3 261 -33 356 -182 478 -33 27 -28 42 16 42 18 0 50 5 72 10 44 10 80
16 140 25 76 11 105 25 105 49 0 82 -178 176 -343 180 -43 1 -80 0 -81 -3 -2
-3 -7 -35 -10 -70 -4 -36 -8 -67 -11 -69 -2 -3 -12 1 -21 9 -19 16 -197 284
-273 410 -94 158 -167 219 -283 237 -29 4 -139 7 -245 6 -105 -1 -196 1 -201
5 -5 3 -23 40 -40 82 -17 42 -56 125 -87 185 -345 666 -1033 1124 -1770 1179
-82 6 -274 12 -278 9z m308 -369 c275 -35 565 -141 788 -287 99 -66 196 -139
196 -150 1 -4 -146 -6 -326 -5 -217 2 -352 -1 -399 -9 -162 -27 -263 -107
-372 -294 -39 -67 -40 -67 -126 -205 -159 -254 -287 -435 -307 -435 -10 0 -19
47 -23 129 -4 82 -10 86 -136 81 -130 -4 -314 -66 -407 -137 -37 -29 -73 -93
-68 -122 2 -9 4 -19 4 -23 2 -11 62 -27 196 -49 72 -11 133 -23 137 -25 4 -3
32 -7 63 -10 69 -7 104 -16 106 -28 1 -5 -32 -36 -72 -70 -109 -91 -169 -191
-205 -341 -19 -79 -22 -182 -13 -438 2 -77 0 -100 -11 -107 -8 -5 -17 -7 -21
-4 -31 19 -38 -116 -25 -491 4 -104 9 -235 12 -290 8 -143 10 -205 5 -205 -26
0 -330 196 -406 262 -53 46 -177 169 -210 209 -69 84 -98 123 -147 199 -73
113 -119 201 -162 308 -32 80 -73 201 -81 241 -2 9 -8 36 -14 61 -37 164 -54
419 -37 560 3 25 8 68 12 95 4 40 21 119 49 235 23 94 83 245 143 360 211 402
565 716 992 879 87 33 251 78 315 86 20 3 40 7 44 9 3 2 40 7 81 11 41 4 76 8
78 10 5 5 297 -3 347 -10z m848 -598 c219 -4 312 -8 322 -17 24 -20 150 -190
195 -265 63 -102 137 -263 176 -382 19 -57 34 -106 34 -109 0 -8 -1831 0
-1836 8 -3 4 14 43 37 85 23 43 60 112 82 153 158 293 266 429 393 491 62 31
151 46 244 42 25 -1 183 -4 353 -6z m1468 -629 c101 -46 171 -138 328 -430 46
-85 49 -97 24 -96 -20 1 -163 -11 -203 -17 -14 -2 -67 -7 -118 -10 -51 -4
-100 -8 -110 -10 -16 -3 -202 -18 -232 -19 -11 -1 -15 16 -16 79 -2 44 -6 98
-9 120 -4 22 -8 58 -11 80 -2 22 -6 51 -9 65 -4 14 -8 39 -10 55 -3 17 -15 69
-28 117 l-24 87 76 3 c201 8 286 2 342 -24z m-1661 -842 c63 -4 138 -9 165
-11 28 -3 100 -7 160 -11 61 -4 126 -8 145 -9 19 -1 91 -5 160 -9 69 -4 134
-9 145 -11 11 -2 37 -4 57 -4 l37 -1 -2 -64 c-2 -64 -2 -65 26 -64 35 1 42 -7
30 -34 l-10 -23 -489 -1 c-269 -1 -492 -2 -496 -3 -3 0 -12 -17 -18 -37 -25
-75 5 -271 71 -471 30 -91 31 -93 69 -103 58 -16 165 -23 368 -24 100 0 182
-3 182 -5 0 -9 -80 -107 -113 -139 l-34 -33 -189 5 c-291 8 -354 22 -380 84
-22 54 -99 313 -128 432 -75 311 -71 430 16 504 33 29 84 48 108 40 3 -1 57
-5 120 -8z m-1150 -75 c66 -18 402 -121 425 -131 181 -74 257 -136 294 -235
12 -31 21 -62 21 -70 0 -32 -38 -35 -378 -32 -399 4 -375 -2 -462 117 -37 50
-89 152 -103 202 -39 134 41 193 203 149z m2693 -126 c14 -11 32 -35 38 -54
11 -32 8 -128 -6 -196 -16 -83 -80 -306 -99 -345 -19 -41 -25 -46 -71 -56 -56
-12 -355 -19 -355 -8 0 16 63 114 73 115 7 0 57 2 112 4 151 7 154 8 182 90
44 130 65 281 47 329 -5 13 -24 16 -101 16 -83 0 -94 2 -89 16 3 9 9 34 12 56
8 50 19 54 137 53 76 -1 98 -4 120 -20z m761 -48 c23 -28 17 -77 -19 -150 -36
-74 -89 -134 -124 -142 -41 -9 -441 -10 -468 -1 l-22 7 19 50 c10 28 32 64 49
79 28 28 115 77 150 86 9 2 88 26 175 53 170 52 208 55 240 18z m-25 -521 c12
-13 11 -19 -5 -47 -11 -18 -31 -36 -44 -39 -38 -10 -221 -3 -232 8 -14 14 -13
61 1 75 26 26 254 28 280 3z m-3244 -80 c75 -10 95 -27 95 -80 0 -24 -6 -48
-13 -54 -27 -23 -276 -31 -349 -12 -44 12 -78 57 -78 103 0 33 20 43 99 46 31
1 56 3 57 4 5 4 143 -1 189 -7z m998 -531 c-74 -51 -260 -130 -403 -170 -83
-23 -109 -29 -180 -41 -19 -3 -38 -8 -41 -9 -3 -2 -49 -7 -101 -11 l-96 -6 -1
88 c-1 48 -6 92 -11 99 -5 6 -29 12 -54 14 -24 1 -54 4 -65 6 -11 2 -62 7
-113 11 -51 3 -102 8 -113 10 -11 2 -51 7 -90 10 -38 4 -71 8 -73 9 -2 2 303
3 678 2 538 0 676 -3 663 -12z"/>
<path d="M3677 5304 c-1 -1 -18 -4 -37 -7 -274 -39 -601 -238 -819 -498 -62
-73 -117 -170 -107 -187 3 -5 6 -35 7 -68 3 -71 29 -106 75 -98 69 13 173 84
359 245 76 66 569 557 604 602 13 17 11 18 -33 16 -25 -2 -47 -4 -49 -5z"/>
<path d="M1764 3196 c-59 -26 -74 -104 -34 -171 9 -16 46 -84 81 -150 34 -66
82 -156 106 -200 23 -44 47 -90 52 -101 5 -12 22 -31 38 -44 22 -17 37 -21 71
-17 52 6 79 28 92 76 11 39 -4 74 -120 291 -28 52 -74 139 -102 193 -66 129
-107 156 -184 123z"/>
<path d="M1265 2885 c-633 -214 -825 -291 -989 -398 -228 -149 -276 -278 -177
-481 111 -229 198 -316 316 -316 74 0 207 51 357 136 34 20 79 45 98 56 19 11
42 26 51 34 8 8 19 14 22 14 4 0 30 16 57 35 27 19 52 35 54 35 5 0 71 42 291
185 28 18 129 83 225 145 319 205 360 232 360 243 0 5 -15 38 -34 71 -18 34
-68 129 -111 211 -43 83 -83 155 -89 161 -8 9 -118 -24 -431 -131z"/>
</g>
</svg>
