<svg xmlns="http://www.w3.org/2000/svg" viewBox="0 0 103 103"><defs><style>.a{fill:#fff;stroke:#e6e6e6;stroke-miterlimit:10;stroke-width:3px;}.b{fill:#394563;}.c{fill:#ed1c24;}</style></defs><title>Asset 381</title><circle class="a" cx="51.5" cy="51.5" r="50"/><path class="b" d="M71.71549,33.59279a4.38057,4.38057,0,0,0-.9-1.27,1.282,1.282,0,0,0-.89-.37h-5.03l-2.12-3.75995c-.86-1.5-1.74-2.27-6.15-2.75-3-.31-8.16-.32-8.38-.32s-5.39.01-8.38.32c-4.42.49-5.31,1.25-6.17,2.75l-2.11,3.76h-5.03a1.30584,1.30584,0,0,0-.9.37,3.24213,3.24213,0,0,0-1.1,2.64,1.841,1.841,0,0,0,1.16,1.38.79228.79228,0,0,0,.09.04,3.942,3.942,0,0,0-1.62,2.04,3.38342,3.38342,0,0,0-1.5,2.83v9.88a3.4292,3.4292,0,0,0,3.44,3.42h6.47a3.403,3.403,0,0,0,3.3-2.55h12.77a1.92592,1.92592,0,0,1-.01-.24006v-.1c0-.56.03-1.12.08-1.67.02-.17005.04-.35.06-.52h-15.13a23.2597,23.2597,0,0,1-7.19-.96.74128.74128,0,0,1,.23-.16l8.12-.8h14.32a13.76987,13.76987,0,0,1,.62-2.01c.07-.18.13-.35.21-.52h-13.71a2.9716,2.9716,0,0,0-1.15-1.44l-.09-.06a11.27665,11.27665,0,0,0-2.28-1.19,47.68968,47.68968,0,0,0-6.32-2.13995l.06-.68006c.18-.7.58-1.34,2.13-1.34a3.68628,3.68628,0,0,0,1.56-.34h.03a5.11374,5.11374,0,0,0,1.94-1.71c2,.8,6.4,1.5,16.09,1.5,3.08,0,5.62-.07,7.72-.19a3.42471,3.42471,0,0,1,.33-.24,16.57364,16.57364,0,0,1,3.99-2.06,16.05166,16.05166,0,0,1,3.03-.79,15.04557,15.04557,0,0,1,2.25-.23c.22-.02.44-.02.67-.02a17.55135,17.55135,0,0,1,5.69.95.18525.18525,0,0,0,.02-.07A2.24439,2.24439,0,0,0,71.71549,33.59279Zm-43.53,8.37c1.13.35,2.56.86,4.25,1.54a10.27006,10.27006,0,0,1,2.11,1.1c1.12.84.67,1.37.39,1.57l-3.74.42a5.18547,5.18547,0,0,1-5.63-4.03l-.31-1.39C25.38547,41.20278,26.43552,41.4128,28.18552,41.96279Zm20.05-6.87c-7.3,0-12.93-.57-14.86-1.17l2.52-4.48c.36-.63.62-1.09,4.24-1.48,2.85-.31,8.06-.31,8.11-.31s5.24,0,8.11.31c3.6.39,3.85.83,4.22,1.48l2.48,4.4.05.08C61.17551,34.52278,55.5455,35.09279,48.23551,35.09279Z"/><path class="c" d="M64.31552,36.12282a12.0719,12.0719,0,0,1-1.87005.55,44.715,44.715,0,0,1-6.49.76c-.26.17-.5.37-.75.57a15.90829,15.90829,0,0,0-1.71,1.56994,16.612,16.612,0,0,0-2.41,3.19,15.7808,15.7808,0,0,0-1.11,2.26h3.76a13.50414,13.50414,0,0,1,1.7-2.51,14.08629,14.08629,0,0,1,4.71-3.62994c.22-.11005.44-.21.67-.3a11.427,11.427,0,0,1,1.16-.42,12.54645,12.54645,0,0,1,1.24-.33,14.00887,14.00887,0,0,1,2.06-.3,3.37818,3.37818,0,0,1,.45-.01A5.36273,5.36273,0,0,1,64.31552,36.12282Zm8.16-.88c-.18-.07-.37-.14-.56-.2a17.55135,17.55135,0,0,0-5.69-.95c-.23,0-.45,0-.67.02a15.04557,15.04557,0,0,0-2.25.23,16.05166,16.05166,0,0,0-3.03.79,16.57364,16.57364,0,0,0-3.99,2.06,3.42471,3.42471,0,0,0-.33.24c-.26.17-.5.37-.75.57a15.90829,15.90829,0,0,0-1.71,1.56994,16.612,16.612,0,0,0-2.41,3.19,15.7808,15.7808,0,0,0-1.11,2.26c-.08.17005-.14.34-.21.52a13.76987,13.76987,0,0,0-.62,2.01c-.05.17-.08.35-.12.52-.1.46-.17.93006-.23,1.4-.02.17-.04.35-.06.52-.05.55-.08,1.11-.08,1.67v.1a1.92592,1.92592,0,0,0,.01.24006c0,.18,0,.35.01.51995a16.76626,16.76626,0,0,0,.27,2.27,15.01546,15.01546,0,0,0,.58,2.31,16.77353,16.77353,0,0,0,1.33,3.03,17.58953,17.58953,0,0,0,2.54,3.5l-1.22,1.23-1.06-1.06-14.46,14.46,3.71,3.71,14.46-14.46-1.04-1.04,1.26-1.26a17.56985,17.56985,0,1,0,17.43-29.97Zm-6.25,30.58a14.16609,14.16609,0,0,1-11.34-5.68994c-.25-.34-.49-.68005-.71-1.05-.16-.26-.32-.53-.46-.8a11.61942,11.61942,0,0,1-.56-1.18,13.77123,13.77123,0,0,1-.66-2l-.06-.27c0-.01-.01-.03-.01-.04a14.10932,14.10932,0,0,1-.33-2.27,1.71105,1.71105,0,0,1-.01-.32.614.614,0,0,1-.01-.14v-.06a1.93745,1.93745,0,0,1-.01-.24006v-.1a13.13757,13.13757,0,0,1,.1-1.67c.02-.18.05-.35.08-.52.03-.24.08-.48.13-.72.04-.23005.1-.45.16-.67005v-.01c.04-.18.09-.35.14-.52a14.45231,14.45231,0,0,1,.79-2.01c.09-.18.17-.35.27-.52a13.50414,13.50414,0,0,1,1.7-2.51,14.08629,14.08629,0,0,1,4.71-3.62994c.22-.11005.44-.21.67-.3a11.427,11.427,0,0,1,1.16-.42,12.54645,12.54645,0,0,1,1.24-.33,14.00887,14.00887,0,0,1,2.06-.3,3.37818,3.37818,0,0,1,.45-.01,4.10786,4.10786,0,0,1,.5-.01995,13.5968,13.5968,0,0,1,1.93.13,13.19993,13.19993,0,0,1,1.57.31,13.364,13.364,0,0,1,3.01,1.15.03658.03658,0,0,1,.03.01,14.16047,14.16047,0,0,1-6.54,26.72Z"/><path class="b" d="M72.76547,39.1028a.03658.03658,0,0,0-.03-.01,13.364,13.364,0,0,0-3.01-1.15,2.72713,2.72713,0,0,1,.89,1.63995l.07.87c-.78.19-1.82.48-3.1.89-2.06.63-4.38,1.47-6.87,2.49a17.64879,17.64879,0,0,0-3.77,1.97,4.803,4.803,0,0,0-1.79,2.28h-2.62c-.06.22-.12.44-.16.67005-.09.41-.16.81994-.21,1.24a13.13757,13.13757,0,0,0-.1,1.67v.1c0,.1,0,.2.01.3h5.35l12.79,1.25995a1.37751,1.37751,0,0,1,.39.27c-1.67.73-6.53,1.51-11.33,1.51h-6.78a13.77123,13.77123,0,0,0,.66,2,11.61942,11.61942,0,0,0,.56,1.18c.14.27.3.54.46.8h1.55a5.43263,5.43263,0,0,0,5.24,4.03h10.21a5.40092,5.40092,0,0,0,5.42-5.4v-15.69A14.20916,14.20916,0,0,0,72.76547,39.1028Zm-.46,5.1a8.18142,8.18142,0,0,1-8.89,6.35l-5.89-.66c-.44-.33-1.15-1.15.62-2.48a14.966,14.966,0,0,1,3.33-1.74c2.65-1.08,4.92-1.86,6.71-2.43,2.76-.85,4.41-1.2,4.6-1.23Z"/></svg>