<svg xmlns="http://www.w3.org/2000/svg" viewBox="0 0 103 103"><defs><style>.a{fill:#fff;stroke:#e6e6e6;}.a,.b,.c,.d{stroke-miterlimit:10;}.a,.b,.d{stroke-width:3px;}.b,.c,.d{fill:none;}.b{stroke:#ed1c24;}.c{stroke:#21c876;stroke-width:2px;}.d{stroke:#394563;}.e{fill:#394563;}</style></defs><title>Asset 421</title><circle class="a" cx="51.5" cy="51.5" r="50"/><polyline class="b" points="34.077 74.614 21.157 74.614 21.157 28.384 45.997 28.384"/><line class="c" x1="34.07739" y1="63.11385" x2="33.94739" y2="62.98385"/><line class="d" x1="43.93739" y1="34.64385" x2="26.14739" y2="34.64385"/><line class="d" x1="34.07739" y1="41.09385" x2="26.14739" y2="41.09385"/><line class="d" x1="34.07739" y1="47.08385" x2="26.14739" y2="47.08385"/><polyline class="b" points="43.757 38.964 34.077 38.964 34.077 41.094 34.077 47.084 34.077 63.114 34.077 74.614 34.077 85.204 67.277 85.204 67.277 57.504"/><polyline class="c" points="56.627 70.32 50.119 76.827 46.865 73.573"/><line class="d" x1="45.16739" y1="45.22385" x2="39.06739" y2="45.22385"/><line class="d" x1="49.36739" y1="51.67385" x2="39.06739" y2="51.67385"/><line class="d" x1="39.0634" y1="57.6663" x2="62.09457" y2="57.6663"/><circle class="d" cx="63.82468" cy="37.69149" r="20.11632"/><polyline class="b" points="63.825 24.986 63.825 37.691 69.553 43.419"/><circle class="e" cx="63.82468" cy="37.69149" r="3.48853"/></svg>