<svg xmlns="http://www.w3.org/2000/svg" viewBox="0 0 103 103"><defs><style>.a{fill:#fff;stroke:#e6e6e6;}.a,.c,.d,.e{stroke-miterlimit:10;}.a,.c,.e{stroke-width:3px;}.b{fill:#394563;}.c,.d,.e{fill:none;}.c{stroke:#ed1c24;}.d{stroke:#21c876;stroke-width:2px;}.e{stroke:#394563;}</style></defs><title>Asset 431</title><circle class="a" cx="51.5" cy="51.5" r="50"/><rect class="b" x="57.18158" y="61.54568" width="21.375" height="4.80322"/><path class="b" d="M75.71338,43.531v1.29H72.92969v-2.6206h1.91015V36.65109H61.03223v5.54932h1.91015V49.5925H63.813a3.8571,3.8571,0,0,0-2.78076,3.69873v6.13769H74.83984V53.29123a3.84288,3.84288,0,0,0-2.831-3.69873h.9209V46.821h2.78369v1.31592H93.67822V43.531Zm-2.87354,9.76025v4.13769H63.03223V53.29123a1.87265,1.87265,0,0,1,1.93847-1.84961h1V49.5925h3.93067v.84912l.08887,1h1A1.85152,1.85152,0,0,1,72.83984,53.29123Zm0-13.09082H69.90137v1.84912H65.9707V40.20041H63.03223V38.65109h9.80761Z"/><rect class="c" x="21.15991" y="28.38158" width="33.19661" height="46.23684"/><polyline class="d" points="43.708 59.734 37.201 66.241 33.947 62.988"/><line class="e" x1="26.14522" y1="34.64033" x2="49.17639" y2="34.64033"/><line class="e" x1="26.14522" y1="41.08992" x2="49.17639" y2="41.08992"/><line class="e" x1="26.14522" y1="47.0804" x2="49.17639" y2="47.0804"/></svg>