<svg xmlns="http://www.w3.org/2000/svg" viewBox="0 0 103 103"><defs><style>.a{fill:#fff;stroke:#e6e6e6;}.a,.b{stroke-miterlimit:10;stroke-width:3px;}.b{fill:none;stroke:#394563;}.c{fill:#ed1c24;}</style></defs><title>Asset 481</title><circle class="a" cx="51.5" cy="51.5" r="50"/><path class="b" d="M24.8435,61.41776v-13.43a6.44007,6.44007,0,0,1,6.43-6.44h24.26a6.42262,6.42262,0,0,1,3.88249,1.3"/><polyline class="b" points="35.436 41.553 43.407 51.062 51.378 41.553"/><line class="b" x1="43.40723" y1="51.06208" x2="43.40723" y2="61.42186"/><circle class="b" cx="43.40723" cy="27.30368" r="9.20343"/><path class="b" d="M36.09344,21.71522c1.99,2.28,6.07,3.84,10.78,3.84a18.84347,18.84347,0,0,0,5.4-.75"/><line class="b" x1="32.19838" y1="61.42186" x2="32.19838" y2="54.8822"/><path class="c" d="M34.03062,80.96386l4.97193,4.97193L58.39482,66.54352,56.97434,65.123l3.00488-3.00487,2.9917,2.9917.99407-.99407a5.86651,5.86651,0,0,0,.93661,7.04862L71.527,77.78979,86.4317,62.88507l-6.62537-6.62538a5.88818,5.88818,0,0,0-6.99433-.99091l.93978-.93978-7.97944-7.97944,2.06193-2.06193L61.844,38.29739,46.9393,53.20211l5.99024,5.99025,2.06194-2.06193,2.82883,2.82883-3.00488,3.00487-1.39254-1.39254Zm33.0299-15.9515L68.14,63.9329l-.98352-1.17539-.91659-.91659,4.243-4.243,1.996,1.996,1.07946-1.07946a2.85876,2.85876,0,0,1,4.08907-.09593l4.46647,4.46647L71.527,73.472,67.06052,69.0055A2.82649,2.82649,0,0,1,67.06052,65.01236ZM51.25712,53.20211,61.844,42.61521l1.67242,1.67242-3.172,3.172,1.99605,1.99605-4.243,4.243-1.996-1.996-3.172,3.172Z"/></svg>