<svg xmlns="http://www.w3.org/2000/svg" viewBox="0 0 103 103"><defs><style>.a{fill:#fff;stroke:#e6e6e6;}.a,.b{stroke-miterlimit:10;stroke-width:3px;}.b{fill:none;stroke:#394563;}.c{fill:#ed1c24;}</style></defs><title>Asset 491</title><circle class="a" cx="51.5" cy="51.5" r="50"/><path class="b" d="M24.93535,61.41776v-13.43a6.44007,6.44007,0,0,1,6.43-6.44h24.27"/><polyline class="b" points="35.529 41.553 43.5 51.062 51.471 41.553"/><line class="b" x1="43.5" y1="51.06208" x2="43.5" y2="61.42186"/><circle class="b" cx="43.5" cy="27.30368" r="9.20343"/><path class="b" d="M36.18621,21.71522c1.99,2.28,6.07,3.84,10.78,3.84a18.84347,18.84347,0,0,0,5.4-.75"/><line class="b" x1="32.29114" y1="61.42186" x2="32.29114" y2="54.8822"/><path class="c" d="M69.94333,38.63187c-.18005-.07-.37-.14-.55993-.2a17.55151,17.55151,0,0,0-5.69007-.95c-.23,0-.45007,0-.67.02a15.04425,15.04425,0,0,0-2.25.23,16.054,16.054,0,0,0-3.03.79,16.57583,16.57583,0,0,0-3.99,2.06,3.43633,3.43633,0,0,0-.33.24c-.26.17-.5.37-.75.57a15.90353,15.90353,0,0,0-1.71,1.56995,16.60956,16.60956,0,0,0-2.41,3.19,15.78087,15.78087,0,0,0-1.11,2.26c-.08.17-.14.34-.21008.52a13.76176,13.76176,0,0,0-.61987,2.01c-.05.17-.08008.35-.12012.52-.09985.46-.16992.93005-.23,1.4-.02.17-.03992.35-.05994.52-.04992.55-.07995,1.11-.07995,1.67v.1a1.92576,1.92576,0,0,0,.01.24005c0,.18,0,.35.01.52a16.74713,16.74713,0,0,0,.26989,2.27,15.01648,15.01648,0,0,0,.58,2.31,16.77436,16.77436,0,0,0,1.33008,3.03,17.58772,17.58772,0,0,0,2.54,3.5l-1.22,1.23-1.06006-1.06-14.46,14.46,3.71,3.71,14.46-14.46-1.04-1.04,1.26-1.26a17.56986,17.56986,0,1,0,17.43005-29.97Zm-6.25,30.58a14.16587,14.16587,0,0,1-11.34-5.68994c-.25-.34-.49-.68006-.71-1.05-.16016-.26-.32007-.53-.46009-.8a11.60933,11.60933,0,0,1-.55993-1.18,13.77913,13.77913,0,0,1-.66-2q-.03-.135-.05993-.27c0-.01-.01-.03-.01-.04a14.10936,14.10936,0,0,1-.33008-2.27,1.71116,1.71116,0,0,1-.01-.32.61387.61387,0,0,1-.01-.13995v-.06a1.92576,1.92576,0,0,1-.01-.24005v-.1a13.12666,13.12666,0,0,1,.1001-1.67c.02-.18.04992-.35.07995-.52.02991-.24.08-.48.13-.72.04-.23.1-.45.15991-.67v-.01c.04-.18.09009-.35.14014-.52a14.4602,14.4602,0,0,1,.78991-2.01c.09-.18.17-.35.27-.52a13.49862,13.49862,0,0,1,1.70008-2.51,14.08474,14.08474,0,0,1,4.71-3.62994c.22-.11005.43994-.21.66992-.3a11.4332,11.4332,0,0,1,1.16-.42,12.54347,12.54347,0,0,1,1.24-.33,14.0094,14.0094,0,0,1,2.05994-.3,3.37942,3.37942,0,0,1,.45007-.01,4.106,4.106,0,0,1,.5-.02,13.59828,13.59828,0,0,1,1.93006.13,13.20152,13.20152,0,0,1,1.56994.31,13.3658,13.3658,0,0,1,3.01,1.15.03641.03641,0,0,1,.02991.01,14.16043,14.16043,0,0,1-6.53992,26.72Z"/></svg>