<svg xmlns="http://www.w3.org/2000/svg" viewBox="0 0 120.86011 70.71002"><defs><style>.a{fill:#1993fc;}.a,.c{fill-rule:evenodd;}.b,.c{fill:#21c876;}</style></defs><title>Asset 81</title><path class="a" d="M94.82955,34.52l-.7-6.44h-.93l-29.78-.07s3.84-7.88,6.13-10.24a6.74231,6.74231,0,0,1,5.79-2.42c1.27,0,7.33.09,11.13.15,1.84.03,3.15.05,3.15.05l.07-2.75995s-2.54.09-5.84.15c-2.88.04-6.33.05-9.19-.04-6.12-.2-7.45,3.09-9.15,5.88s-6.13,9.77-6.54,9.5c-.4-.27-.4-3.3-.4-3.3s-2.42-.74-6.2.74005c-3.77,1.48-3.63,2.83-3.63,3.5s3.1.74,5.52,1.35c2.43.6,4.11-.14,1.41,1.88-2.69,2.02-3.03,4.92-3.36,6-.34,1.08,0,8.15,0,8.15a1.59117,1.59117,0,0,1-.88.27c-.51.05-.04,9.49.21,15.27.07,1.79.13,3.22.13,3.92,0,2.97,1.28,2.16,1.28,2.16s7.2-.14,9.56-.14,2.9-.4,3.03-1.21a13.89433,13.89433,0,0,0,.04-1.86c-.03-1.24-.1-2.59-.1-2.59l-9.69995-.94,22.94-.18,9.67-.08,1.47-.01.05-1.49.15-4.1h-7.61s-5.46.07-5.86-1.01c-.41-1.08-3.5-10.37-2.7-12.93a2.56561,2.56561,0,0,1,3.1-1.95l15.71-.11,1-.01,1.58-.01Zm-30.81,20.47c-.74.2-4.96.41-5.76995-.07-.81-.47-1.12-1.69-.81-2.06994.3-.37006,5.91-.54,6.75.11C64.5696,53.3,64.76955,54.79,64.01955,54.99Zm7.27-7.25c-.71.14-8.55-.03-10.04,0-1.48.03-2.4-.71-3.81-3.32-1.42-2.61-1.02-3.69-.17-4.2.84-.51,1.58-.41,5.98.98,4.38995,1.39,7.76995,2.04,8.57995,5.9C71.82955,47.1,71.9996,47.6,71.28957,47.74Z"/><path class="a" d="M93.15957,42.65l-.63,2.23-.03.09-2.21,7.82s-.76.03-1.9.05c-3.24.07-9.52.1-9.82-.65a27.3873,27.3873,0,0,1-1.75-7.41c-.06-2.63.88-2.09.88-2.09Z"/><path class="a" d="M118.39956,32.93a6.85324,6.85324,0,0,0-4.19-.51s0,2.06-.27,2.24c-.28.18-3.27-4.54-4.42005-6.43-1.16-1.89-2.05-4.12-6.2-3.98-1.64.06-3.57.05-5.31.03-2.66-.03-4.86005-.11005-4.86005-.11005L93.19961,26.04s2.74-.04,5.31994-.07c1.94-.04,3.8-.06,4.34-.06a4.55351,4.55351,0,0,1,3.92,1.64c1.55,1.59,4.15,6.93,4.15,6.93l-11.16.02-4.94.02h-2l-.03,5.1-.01,2.83h.45l5.83-.03,2.61-.01a1.72961,1.72961,0,0,1,2.09,1.31995c.55,1.73-1.55,8.02-1.81994,8.75s-3.97.68005-3.97.68005h-5.15l.11005,3.06.03.72,23.06.19-6.56.63a29.98855,29.98855,0,0,0-.05,3.01c.1.55.46.82,2.06.82,1.59,0,6.47.09,6.47.09s.86.55.86-1.45c0-2.00995.69-12.95.23-12.99a1.03894,1.03894,0,0,1-.59-.19,43.61271,43.61271,0,0,0,0-5.51,6.64412,6.64412,0,0,0-2.28-4.06006c-1.82-1.36-.68-.86.96-1.27s3.73-.46,3.73-.91C120.85958,34.84,120.95956,33.93,118.39956,32.93Zm-3.97,19.76a11.17685,11.17685,0,0,1-3.91.04c-.5-.12994-.37-1.13995-.12-1.37.58-.44,4.37-.32,4.58-.07C115.17959,51.54,114.97958,52.37,114.42959,52.69Zm.55-7.11c-.96,1.77-1.58,2.27-2.59,2.25-1-.03-6.31.09-6.79,0s-.36-.44-.36-.44c.55-2.61,2.83-3.05,5.81-3.99,2.97-.94,3.47-1.01,4.04-.66C115.65957,43.08,115.9396,43.82,114.97958,45.58Z"/><path class="a" d="M101.85958,45.82a18.36067,18.36067,0,0,1-1.19,5.02c-.15.38-2.58.46-4.7.46-1.71,0-3.23-.05-3.23-.05l.46-6.84h8.06994S101.89956,44.05,101.85958,45.82Z"/><path class="b" d="M99.76955,34.5a35.28039,35.28039,0,0,0-1.25-8.53c-.16-.57-.32995-1.13-.50994-1.69A35.357,35.357,0,1,0,31.01955,46.92a34.48357,34.48357,0,0,0,3.09,6.59,35.29143,35.29143,0,0,0,54.38,7.71c.53-.48,1.04-.98,1.52-1.5a35.04287,35.04287,0,0,0,2.93-3.5,33.01574,33.01574,0,0,0,2.02-3.06c.35-.61.69-1.23,1.01-1.86a34.65233,34.65233,0,0,0,2.63-6.89c.18-.66.33-1.32.47-1.99a35.10435,35.10435,0,0,0,.71-7.06994C99.77956,35.07,99.77956,34.78,99.76955,34.5Zm-7.24,10.38-.03.09a28.93352,28.93352,0,0,1-4.11005,7.87,25.50914,25.50914,0,0,1-2.3,2.78,29.48273,29.48273,0,0,1-7.27,5.68,29.17,29.17,0,0,1-13.14,3.71c-.41.02-.83.03-1.25.03a29.685,29.685,0,1,1,0-59.37006,29.5,29.5,0,0,1,19.42,7.27,28.75727,28.75727,0,0,1,2.62,2.56,29.44561,29.44561,0,0,1,6.73,12.58,28.49477,28.49477,0,0,1,.88995,6.44c.02.27.02.55.02.83a28.47725,28.47725,0,0,1-.31,4.26,24.58207,24.58207,0,0,1-.56,2.84A21.89773,21.89773,0,0,1,92.52956,44.88Z"/><path class="c" d="M30.21957,56.01c-2.17,1.41-5.14,3.32-9.2,5.93-15.18,9.77-16.46,10.87-20.5,2.4-3.41-7.15,10.51-10.38,25.81-15.72Z"/><path class="c" d="M33.54958,53.87c-.73.47-1.65,1.07-2.84,1.83l-3.84-7.26c1.06-.38,2.13-.77,3.2-1.17Z"/><path class="c" d="M36.1896,52.17l-2.08,1.34a.35261.35261,0,0,0-.08.05l-3.43-6.48c.14-.06.28-.11.42-.16,1.26-.48,2.51-.97,3.76-1.49Z"/><path class="c" d="M59.70228,12.04243c-9.9094.36029-17.4767,10.0896-16.9362,11.17078s-2.7022,9.72913,16.9362-11.17078Z"/><path class="c" d="M33.96957,55.73a1.66566,1.66566,0,0,1-.82,1,1.68547,1.68547,0,0,1-2.27-.71l-.17-.32-3.84-7.26-.11-.21a1.68483,1.68483,0,0,1,.7-2.28,1.6639,1.6639,0,0,1,.78-.19,1.79312,1.79312,0,0,1,.51.07,1.71728,1.71728,0,0,1,.99.82l.33.62,3.48,6.6.31.58A1.62814,1.62814,0,0,1,33.96957,55.73Z"/></svg>