<svg xmlns="http://www.w3.org/2000/svg" viewBox="0 0 174.8035 32.48279"><defs><style>.a{fill:#1993fc;}.b,.c{fill:#21c876;}.c{fill-rule:evenodd;}</style></defs><title>Asset 71</title><path class="a" d="M173.6365,4.648l1.167,4.37579h-3.14419V28.14746h-4.797V9.0238h-3.1442L164.95,4.648Zm-13.90509,0a2.66405,2.66405,0,0,1,2.09059.77777,2.99306,2.99306,0,0,1,.697,2.07471V18.7478a5.003,5.003,0,0,1-.146,1.24781,2.26557,2.26557,0,0,1-.53491.9887,2.645,2.645,0,0,1-1.0372.66449,4.66084,4.66084,0,0,1-1.6205.24286h-4.01929v6.2558H150.4936V4.648Zm-4.5703,4.11639v9.23786h2.33379q.29175,0,.3728-.11365a.65547.65547,0,0,0,.081-.3725V9.21826q0-.45374-.42151-.45386ZM138.922,4.648h9.1406L148.873,9.0238H143.7517v5.57489h3.88941v4.05188H143.7517v5.121h4.9269l-.8104,4.37585H138.922Zm-1.9448,23.49945h-4.79709V8.69946h-2.5605v19.448H124.8222V4.648h12.155Zm-19.86919,0a3.87773,3.87773,0,0,1-2.8522-.84277,3.942,3.942,0,0,1-.81041-2.7876V7.53278a2.79179,2.79179,0,0,1,.7942-2.13929,2.75666,2.75666,0,0,1,1.961-.74548h6.1909l.8104,4.37579h-4.5056q-.42148,0-.4213.4538V23.31781q0,.454.4213.4538h4.5056l-.8427,4.37585ZM104.1755,14.72852h.7129L107.2871,4.648h4.862l-2.8199,10.826,2.78731,12.6734h-5.1537l-1.84731-9.69134h-.94v9.69134H99.37811V4.648h4.79739Zm-11.57129,3.922H88.7145V14.59869h3.88971V9.4776q0-.4541-.42151-.4538H87.6773L88.48771,4.648H94.6786a2.75718,2.75718,0,0,1,1.961.74548,2.79279,2.79279,0,0,1,.794,2.13929V24.51709a3.94249,3.94249,0,0,1-.81039,2.7876,3.87711,3.87711,0,0,1-2.85231.84277H88.52l-.8427-4.37585h4.5054q.42135,0,.42151-.4538ZM29.8525,4.648a2.66407,2.66407,0,0,1,2.0906.77777,2.99307,2.99307,0,0,1,.697,2.07471V18.7478a5.00715,5.00715,0,0,1-.146,1.24781,2.26553,2.26553,0,0,1-.53489.9887,2.646,2.646,0,0,1-1.03721.66449,4.66117,4.66117,0,0,1-1.62049.24286H25.2822v6.2558H20.6147V4.648ZM25.2822,8.7644v9.23786H27.616c.1944,0,.31891-.038.3727-.11365a.65464.65464,0,0,0,.0811-.3725V9.21826q0-.45374-.4215-.45386Zm-13.64569,0q-.42135,0-.42151.45386v14.3266a.65575.65575,0,0,0,.0811.37274q.08115.11353.3727.11341h1.7827q.29175,0,.3728-.11341a.6565.6565,0,0,0,.0811-.37274V9.21826q0-.45374-.4216-.45386ZM18.6701,24.80878a4.89045,4.89045,0,0,1-.1621,1.28039,2.66208,2.66208,0,0,1-.5511,1.05341,2.75354,2.75354,0,0,1-1.0372.72931,4.15736,4.15736,0,0,1-1.6205.27557H9.85381a4.1592,4.1592,0,0,1-1.62091-.27557,2.75482,2.75482,0,0,1-1.0371-.72931,2.66193,2.66193,0,0,1-.55109-1.05341,4.89052,4.89052,0,0,1-.16191-1.28039v-6.061H4.7974v9.39966H0V4.648H4.7974V14.69586H6.4828v-7.001a3.1469,3.1469,0,0,1,.7617-2.22028A3.13984,3.13984,0,0,1,9.6591,4.648h5.83451a3.14029,3.14029,0,0,1,2.41479.8266,3.14827,3.14827,0,0,1,.7617,2.22028Z"/><path class="b" d="M86.0564,24.80878a4.89056,4.89056,0,0,1-.1618,1.28039,2.66208,2.66208,0,0,1-.5511,1.05341,2.75513,2.75513,0,0,1-1.0372.72931,4.15818,4.15818,0,0,1-1.62079.27557H77.2401a4.15659,4.15659,0,0,1-1.62049-.27557,2.75275,2.75275,0,0,1-1.0372-.72931,2.66223,2.66223,0,0,1-.55111-1.05341,4.89046,4.89046,0,0,1-.16209-1.28039V7.69489a3.1475,3.1475,0,0,1,.76189-2.22028,3.13985,3.13985,0,0,1,2.41461-.8266H82.8802a3.13985,3.13985,0,0,1,2.41461.8266,3.14735,3.14735,0,0,1,.76159,2.22028ZM79.0228,8.7644q-.42133,0-.4212.45386v14.3266a.65567.65567,0,0,0,.0811.37274q.0807.11353.3727.11341h1.7827q.29175,0,.3728-.11341a.65807.65807,0,0,0,.0811-.37274V9.21826q0-.45374-.42149-.45386ZM71.40591,4.648l1.167,4.37579H69.4287V28.14746H64.6316V9.0238H61.4874L62.7194,4.648ZM59.9641,13.95038a3.13607,3.13607,0,0,1-.3404,1.50751,1.94384,1.94384,0,0,1-1.28019.89117,1.7649,1.7649,0,0,1,1.41.6806,2.34837,2.34837,0,0,1,.4374,1.3938v6.09363a3.942,3.942,0,0,1-.81019,2.7876,3.87813,3.87813,0,0,1-2.8525.84277H48.0036V4.648h9.17291a2.66451,2.66451,0,0,1,2.09079.77777,2.993,2.993,0,0,1,.6968,2.07471ZM55.52361,19.169a.63173.63173,0,0,0-.19441-.53492.84518.84518,0,0,0-.5188-.14569H52.6711V24.031h2.3661a.50617.50617,0,0,0,.3892-.11341.57237.57237,0,0,0,.09721-.37274ZM52.6711,8.7644V14.923h2.20421a.53936.53936,0,0,0,.58339-.616V9.21826q0-.45374-.4215-.45386ZM38.8633,21.50281h2.1716l-1.0695-8.3302Zm-.51879,3.72748-.42121,2.91717H33.1909L37.4372,4.648H42.461l4.2463,23.49945H41.9749l-.4213-2.91717Z"/><path class="c" d="M23.8527,31.18506H155.7952s-48.88369,1.29773-68.3506,1.29773-63.5919-1.29773-63.5919-1.29773"/><path class="c" d="M2.5495,1.29767H169.5328S107.66691,0,83.0299,0C58.3931,0,2.5495,1.29767,2.5495,1.29767"/></svg>