<svg xmlns="http://www.w3.org/2000/svg" viewBox="0 0 103 103"><defs><style>.a{fill:#fff;stroke:#e6e6e6;stroke-miterlimit:10;stroke-width:3px;}.b{fill:#ed1c24;}.c{fill:#394563;}</style></defs><title>Asset 271</title><circle class="a" cx="51.5" cy="51.5" r="50"/><path class="b" d="M54.0255,52.63967a3.13026,3.13026,0,0,0-1.26245-1.5976l.06928-.02929.00635-.00245a1.47568,1.47568,0,0,0,.91455-1.08642,2.58042,2.58042,0,0,0-.87989-2.09033,1.00012,1.00012,0,0,0-.707-.293H48.19073L46.515,44.56551c-.67725-1.18848-1.37745-1.79-4.8628-2.16992-2.37549-.25244-6.45361-.25537-6.626-.25537-.17286,0-4.26075.00293-6.62842.25586-3.49317.38037-4.19434.98193-4.87256,2.17382l-1.67236,2.97071H17.87627a1.00014,1.00014,0,0,0-.707.293,2.56954,2.56954,0,0,0-.87549,2.08886,1.47646,1.47646,0,0,0,.91846,1.08692l.06982.03a3.11931,3.11931,0,0,0-1.27551,1.61493,2.68716,2.68716,0,0,0-1.19031,2.2359v7.81006a2.71822,2.71822,0,0,0,2.71973,2.71044h5.12012a2.70692,2.70692,0,0,0,2.60986-2.0205H44.77648a2.71524,2.71524,0,0,0,2.61981,2.0205h5.11963a2.71833,2.71833,0,0,0,2.72022-2.71044V54.89022A2.68869,2.68869,0,0,0,54.0255,52.63967ZM25.26543,45.55526c.28418-.499.48926-.85938,3.34717-1.1709,2.25928-.24121,6.37207-.24414,6.41358-.24414.041,0,4.14453.00293,6.41162.24414,2.84912.31006,3.04394.65283,3.3374,1.167l1.95911,3.47845-.00013.00007.03772.0672c-1.52038.47583-5.97308.92352-11.756.92352-5.772,0-10.21826-.4458-11.74707-.9209Zm-7.44354,7.96289c.14264-.55487.45825-1.05762,1.68427-1.05762a2.98934,2.98934,0,0,0,1.231-.26923c.00739-.00323.01606-.00177.02338-.00518a4.02526,4.02526,0,0,0,1.53857-1.35376c1.58228.63342,5.05866,1.18823,12.7168,1.18823,7.65235,0,11.13379-.55371,12.71778-1.18653a4.01307,4.01307,0,0,0,1.55566,1.355c.00738.00341.01666.002.02417.00518a2.92867,2.92867,0,0,0,1.21265.2663c1.18646,0,1.54174.442,1.71008,1.15582l.0357.43531c-.39544.1018-.91253.24438-1.5534.444-1.03662.32275-2.19336.74267-3.44824,1.25195a8.70832,8.70832,0,0,0-1.8794.98975,2.34816,2.34816,0,0,0-.89758,1.1333H25.55511a2.35137,2.35137,0,0,0-.90833-1.13672c-.02295-.01709-.04687-.03272-.07129-.04737a9.00072,9.00072,0,0,0-1.80078-.94189,38.71553,38.71553,0,0,0-4.99841-1.69342Zm-.72516,2.40954-.24334-1.09723c.1.02.93.19,2.31.62.9.28,2.03.68,3.36,1.22a7.89847,7.89847,0,0,1,1.67.87c.89.66.53,1.08.31,1.24006l-2.95276.33056A4.0954,4.0954,0,0,1,17.09673,55.92769ZM46.556,61.39022H23.4959a18.45781,18.45781,0,0,1-5.6831-.75635.71411.71411,0,0,1,.18554-.13232l6.41565-.63086H45.6281l6.40827.63006a.66973.66973,0,0,1,.19293.13312A18.40553,18.40553,0,0,1,46.556,61.39022Zm6.52686-5.46253A4.0954,4.0954,0,0,1,48.6289,59.111l-2.95282-.33056c-.22-.16-.58-.58.31-1.24006a7.89847,7.89847,0,0,1,1.67-.87c1.33-.54,2.46-.94,3.36-1.22,1.38-.43,2.21-.6,2.31-.62Z"/><rect class="c" x="57.18115" y="60.58602" width="21.37549" height="4.80322"/><path class="c" d="M75.71337,42.57137v1.29H72.92968V41.2408h1.91016V35.69149H61.03222V41.2408h1.91016v7.39209h.8706a3.85711,3.85711,0,0,0-2.78076,3.69873v6.1377H74.83984v-6.1377a3.8429,3.8429,0,0,0-2.83106-3.69873h.9209V45.86141h2.78369v1.31592H93.67822v-4.606Zm-2.87353,9.76025v4.1377H63.03222v-4.1377A1.87265,1.87265,0,0,1,64.9707,50.482h1V48.63289h3.93066V49.482l.08887,1h1A1.85152,1.85152,0,0,1,72.83984,52.33162ZM69.90136,39.2408v1.84912H65.9707V39.2408H63.03222V37.69149h9.80762V39.2408Z"/></svg>