<svg xmlns="http://www.w3.org/2000/svg" viewBox="0 0 103 103"><defs><style>.a{fill:#fff;stroke:#e6e6e6;}.a,.c{stroke-miterlimit:10;stroke-width:3px;}.b{fill:#394563;}.c{fill:none;stroke:#ed1c24;}</style></defs><title>Asset 311</title><circle class="a" cx="51.5" cy="51.5" r="50"/><path class="b" d="M75.53124,47.16179a3.95934,3.95934,0,0,0-1.59681-2.02072l.08763-.03705.008-.00309a1.86651,1.86651,0,0,0,1.15677-1.37416,3.26382,3.26382,0,0,0-1.11292-2.644,1.265,1.265,0,0,0-.89428-.37056H68.15114l-2.11961-3.763c-.85661-1.50324-1.74225-2.26412-6.15068-2.74461-3.00463-.3193-8.16284-.323-8.38085-.323-.21863,0-5.38919.00371-8.38393.32362-4.41832.48111-5.3052,1.242-6.163,2.74956l-2.11529,3.75749H29.808a1.265,1.265,0,0,0-.89429.37056,3.25008,3.25008,0,0,0-1.10735,2.6421,1.86744,1.86744,0,0,0,1.1617,1.37478l.08832.038a3.94544,3.94544,0,0,0-1.61333,2.04264,3.39883,3.39883,0,0,0-1.50556,2.82807v9.87853a3.43814,3.43814,0,0,0,3.44,3.4283H35.8537a3.42383,3.42383,0,0,0,3.30107-2.55563H63.83264a3.43437,3.43437,0,0,0,3.31366,2.55563h6.47555a3.43827,3.43827,0,0,0,3.44066-3.4283V50.00839A3.40077,3.40077,0,0,0,75.53124,47.16179Zm-36.37708-8.9607c.35944-.63119.61883-1.087,4.23365-1.481,2.85764-.30509,8.05969-.3088,8.11219-.3088.05188,0,5.2422.00371,8.10972.3088,3.6037.39218,3.85012.82574,4.2213,1.47607l2.478,4.39971-.00015.00008.04771.085c-1.92306.60185-7.555,1.16811-14.86952,1.16811-7.30066,0-12.92454-.56387-14.85824-1.16479ZM29.73921,48.27293c.18042-.70183.57962-1.33772,2.13034-1.33772a3.78125,3.78125,0,0,0,1.55705-.34053c.00934-.0041.02031-.00224.02957-.00657a5.09112,5.09112,0,0,0,1.94606-1.7123c2.00134.80119,6.39842,1.50294,16.0848,1.50294,9.679,0,14.08254-.70036,16.086-1.50077a5.07585,5.07585,0,0,0,1.96767,1.71384c.00934.00432.02108.00247.03057.00656a3.70437,3.70437,0,0,0,1.53382.33683c1.50069,0,1.95007.55908,2.163,1.46193l.04516.5506c-.50018.12877-1.15422.3091-1.96482.56163-1.31117.40823-2.77426.93937-4.3615,1.58353a11.01484,11.01484,0,0,0-2.37714,1.25187,2.97,2.97,0,0,0-1.13531,1.43345h-23.954a2.97416,2.97416,0,0,0-1.14889-1.43777c-.029-.02162-.05929-.04138-.09017-.05991a11.38469,11.38469,0,0,0-2.27772-1.19135,48.96922,48.96922,0,0,0-6.32222-2.14192ZM28.822,51.32064l-.3078-1.38783c.12653.02524,1.1763.24032,2.9218.7842,1.13839.35411,2.56767.86008,4.24986,1.54307a9.99053,9.99053,0,0,1,2.11235,1.10041c1.12566.83485.67033,1.36606.3921,1.56848l-3.73479.41812A5.18006,5.18006,0,0,1,28.822,51.32064Zm37.26141,6.90925H36.916a23.34615,23.34615,0,0,1-7.18826-.95666.90317.90317,0,0,1,.23469-.16737l8.11481-.79794H64.90982l8.10547.79693a.8472.8472,0,0,1,.244.16838A23.28,23.28,0,0,1,66.08341,58.22989Zm8.25547-6.90925a5.18006,5.18006,0,0,1-5.63352,4.02645L64.9705,54.929c-.27823-.20242-.73356-.73363.39209-1.56848a9.991,9.991,0,0,1,2.11235-1.10041c1.6822-.683,3.11148-1.189,4.24987-1.54307,1.7455-.54388,2.79526-.759,2.92179-.7842Z"/><path class="c" d="M86.17032,51.5A34.67032,34.67032,0,1,0,51.5,86.17032,34.6012,34.6012,0,0,0,86.17032,51.5Z"/><line class="c" x1="30.62649" y1="79.18107" x2="73.47676" y2="24.6835"/></svg>