<svg xmlns="http://www.w3.org/2000/svg" viewBox="0 0 103 103"><defs><style>.a{fill:#fff;stroke:#e6e6e6;stroke-width:3px;}.a,.b{stroke-miterlimit:10;}.b{fill:none;stroke:#ed1c24;stroke-width:2px;}.c{fill:#394563;}</style></defs><title>Asset 301</title><circle class="a" cx="51.5" cy="51.5" r="50"/><polyline class="b" points="49.915 31.316 57.996 39.397 61.263 39.397 64.077 42.211 64.077 44.661 61.399 41.984 58.421 43.044 57.36 46.023 60.038 48.7 57.587 48.7 54.774 45.887 54.774 42.619 46.692 34.538"/><polyline class="b" points="56.309 37.711 48.228 29.629 48.228 26.362 45.414 23.548 42.964 23.548 45.641 26.226 44.581 29.204 41.602 30.265 38.925 27.587 38.925 30.038 41.739 32.852 45.006 32.852 53.087 40.933"/><path class="b" d="M46.65643,34.50523l-6.99,6.99a2.57718,2.57718,0,0,0,0,3.65l2.84,2.84a2.59542,2.59542,0,0,0,3.65,0l7-6.99"/><polyline class="b" points="53.116 34.525 53.126 34.525 59.066 28.535"/><polygon class="b" points="60.795 28.848 59.067 28.535 58.754 26.808 62.757 23.511 64.091 24.845 60.795 28.848"/><line class="b" x1="51.17265" y1="38.63866" x2="43.21662" y2="46.59469"/><line class="b" x1="49.02903" y1="36.49504" x2="41.073" y2="44.45107"/><path class="c" d="M70.49933,68.899a3.13029,3.13029,0,0,0-1.26245-1.59759l.06927-.0293.00635-.00244a1.47569,1.47569,0,0,0,.91455-1.08643,2.58038,2.58038,0,0,0-.87988-2.09033,1.00014,1.00014,0,0,0-.707-.293H64.66455l-1.67578-2.9751c-.67725-1.18847-1.37744-1.79-4.86279-2.16992-2.37549-.25244-6.45362-.25537-6.626-.25537-.17285,0-4.26074.00293-6.62842.25586-3.49316.38037-4.19433.98193-4.87256,2.17383L38.32666,63.8H34.3501a1.00012,1.00012,0,0,0-.707.293,2.56952,2.56952,0,0,0-.87549,2.08887,1.47642,1.47642,0,0,0,.91846,1.08691l.06982.03a3.1193,3.1193,0,0,0-1.27551,1.61493A2.68716,2.68716,0,0,0,31.29,71.14959v7.81006a2.71822,2.71822,0,0,0,2.71973,2.71045h5.12011a2.70694,2.70694,0,0,0,2.60987-2.02051H61.25031a2.71524,2.71524,0,0,0,2.61981,2.02051h5.11963A2.71832,2.71832,0,0,0,71.71,78.95965V71.14959A2.68868,2.68868,0,0,0,70.49933,68.899ZM41.73926,61.81463c.28418-.499.48926-.85938,3.34717-1.1709,2.25927-.24121,6.37207-.24414,6.41357-.24414.041,0,4.14453.00293,6.41162.24414,2.84912.31006,3.044.65283,3.3374,1.167l1.95911,3.47846-.00012.00006.03772.0672c-1.52039.47583-5.97309.92352-11.756.92352-5.772,0-10.21827-.4458-11.74707-.9209Zm-7.44354,7.96289c.14263-.55487.45825-1.05762,1.68426-1.05762a2.98941,2.98941,0,0,0,1.231-.26922c.00738-.00324.016-.00177.02338-.00519A4.02517,4.02517,0,0,0,38.773,67.09173c1.58227.63342,5.05865,1.18823,12.7168,1.18823,7.65234,0,11.13379-.55371,12.71777-1.18652a4.01313,4.01313,0,0,0,1.55566,1.355c.00739.00342.01667.002.02417.00519A2.92885,2.92885,0,0,0,67,68.7199c1.18646,0,1.54175.442,1.71008,1.15582l.03571.43531c-.39545.1018-.91254.24438-1.55341.444-1.03662.32275-2.19336.74267-3.44824,1.25195a8.7082,8.7082,0,0,0-1.87939.98975,2.34813,2.34813,0,0,0-.89759,1.1333H42.02893a2.35133,2.35133,0,0,0-.90832-1.13672c-.023-.01709-.04688-.03272-.07129-.04736a9.00063,9.00063,0,0,0-1.80078-.9419,38.71661,38.71661,0,0,0-4.99842-1.69342Zm-.72516,2.40955-.24335-1.09723c.1.02.93.19,2.31.62.9.28,2.03.68,3.36,1.22a7.89832,7.89832,0,0,1,1.67.87c.88995.66.53,1.08.31,1.24l-2.95275.33056A4.09539,4.09539,0,0,1,33.57056,72.18707Zm29.45923,5.46252H39.96973a18.45757,18.45757,0,0,1-5.68311-.75635.714.714,0,0,1,.18555-.13232l6.41565-.63086H62.10193l6.40826.63006a.66973.66973,0,0,1,.19293.13312A18.40509,18.40509,0,0,1,63.02979,77.64959Zm6.52685-5.46252a4.09539,4.09539,0,0,1-4.45392,3.18334l-2.95282-.33056c-.22-.16-.58-.58.31-1.24a7.89819,7.89819,0,0,1,1.67-.87c1.33-.54,2.46-.94,3.36-1.22,1.38-.43,2.21-.6,2.31-.62Z"/></svg>