<svg xmlns="http://www.w3.org/2000/svg" viewBox="0 0 103 103"><defs><style>.a{fill:#fff;stroke:#e6e6e6;stroke-width:3px;}.a,.b,.c{stroke-miterlimit:10;}.b,.c{fill:none;stroke-width:2px;}.b{stroke:#21c876;}.c{stroke:#ed1c24;}.d{fill:#394563;}.e{fill:#ed1c24;}</style></defs><title>Asset 281</title><circle class="a" cx="51.5" cy="51.5" r="50"/><polyline class="b" points="75.593 30.586 69.085 37.094 65.831 33.84"/><line class="c" x1="35.08307" y1="30.58628" x2="28.57564" y2="37.09372"/><line class="c" x1="28.57564" y1="30.58628" x2="35.08307" y2="37.09372"/><path class="d" d="M90.70929,52.63967a3.13026,3.13026,0,0,0-1.26245-1.5976l.06927-.02929.00635-.00245a1.47564,1.47564,0,0,0,.91455-1.08642,2.58038,2.58038,0,0,0-.87988-2.09033,1.00014,1.00014,0,0,0-.707-.293H84.87451l-1.67578-2.9751c-.67725-1.18848-1.37744-1.79-4.86279-2.16992-2.37549-.25244-6.45362-.25537-6.626-.25537-.17285,0-4.26074.00293-6.62842.25586-3.49316.38037-4.19433.98193-4.87256,2.17382l-1.67236,2.97071H54.56006a1.00012,1.00012,0,0,0-.707.293,2.56951,2.56951,0,0,0-.87549,2.08886,1.47644,1.47644,0,0,0,.91846,1.08692l.06982.03a3.11931,3.11931,0,0,0-1.27551,1.61493A2.68716,2.68716,0,0,0,51.5,54.89022v7.81006a2.71821,2.71821,0,0,0,2.71973,2.71044h5.12011a2.70692,2.70692,0,0,0,2.60987-2.0205H81.46027a2.71523,2.71523,0,0,0,2.61981,2.0205h5.11963a2.71832,2.71832,0,0,0,2.72021-2.71044V54.89022A2.68868,2.68868,0,0,0,90.70929,52.63967ZM61.94922,45.55526c.28418-.499.48926-.85938,3.34717-1.1709,2.25927-.24121,6.37207-.24414,6.41357-.24414.041,0,4.14453.00293,6.41162.24414,2.84912.31006,3.044.65283,3.3374,1.167l1.95911,3.47845-.00012.00007.03772.0672c-1.52039.47583-5.97309.92352-11.756.92352-5.772,0-10.21826-.4458-11.74707-.9209Zm-7.44354,7.96289c.14264-.55487.45825-1.05762,1.68426-1.05762a2.98938,2.98938,0,0,0,1.231-.26923c.00738-.00323.016-.00177.02338-.00518a4.02526,4.02526,0,0,0,1.53857-1.35376c1.58228.63342,5.05865,1.18823,12.7168,1.18823,7.65234,0,11.13379-.55371,12.71777-1.18653a4.01307,4.01307,0,0,0,1.55566,1.355c.00739.00341.01667.002.02417.00518a2.9287,2.9287,0,0,0,1.21265.2663c1.18646,0,1.54175.442,1.71008,1.15582l.03571.43531c-.39545.1018-.91254.24438-1.55341.444-1.03662.32275-2.19336.74267-3.44824,1.25195a8.7082,8.7082,0,0,0-1.87939.98975,2.34813,2.34813,0,0,0-.89759,1.1333H62.23889a2.35128,2.35128,0,0,0-.90832-1.13672c-.023-.01709-.04688-.03272-.07129-.04737a9.00072,9.00072,0,0,0-1.80078-.94189,38.715,38.715,0,0,0-4.99842-1.69342Zm-.72516,2.40954-.24335-1.09723c.1.02.93.19,2.31.62.9.28,2.03.68,3.36,1.22a7.89886,7.89886,0,0,1,1.67005.87c.88995.66.53,1.08.31,1.24006l-2.95275.33056A4.09539,4.09539,0,0,1,53.78052,55.92769Zm29.45923,5.46253H60.17969a18.45788,18.45788,0,0,1-5.68311-.75635.714.714,0,0,1,.18555-.13232l6.41565-.63086H82.31189l6.40826.63006a.66989.66989,0,0,1,.19294.13312A18.40553,18.40553,0,0,1,83.23975,61.39022Zm6.52685-5.46253A4.09539,4.09539,0,0,1,85.31268,59.111l-2.95282-.33056c-.22-.16-.57995-.58.31-1.24006a7.899,7.899,0,0,1,1.67-.87c1.33-.54,2.46-.94,3.36-1.22,1.38-.43,2.21-.6,2.31-.62Z"/><path class="e" d="M50.28937,52.63967a3.13031,3.13031,0,0,0-1.26245-1.5976l.06927-.02929.00635-.00245a1.47566,1.47566,0,0,0,.91455-1.08642,2.58038,2.58038,0,0,0-.87988-2.09033,1.00014,1.00014,0,0,0-.707-.293H44.45459l-1.67578-2.9751c-.67725-1.18848-1.37744-1.79-4.86279-2.16992-2.37549-.25244-6.45362-.25537-6.626-.25537-.17285,0-4.26074.00293-6.62842.25586-3.49316.38037-4.19433.98193-4.87256,2.17382L18.1167,47.54061H14.14014a1.00012,1.00012,0,0,0-.707.293,2.56951,2.56951,0,0,0-.87549,2.08886,1.47645,1.47645,0,0,0,.91845,1.08692l.06983.03a3.11926,3.11926,0,0,0-1.27551,1.61493,2.68713,2.68713,0,0,0-1.19031,2.2359v7.81006a2.71821,2.71821,0,0,0,2.71972,2.71044h5.12012a2.70693,2.70693,0,0,0,2.60987-2.0205H41.04034a2.71526,2.71526,0,0,0,2.61982,2.0205h5.11963A2.71832,2.71832,0,0,0,51.5,62.70028V54.89022A2.68868,2.68868,0,0,0,50.28937,52.63967ZM21.5293,45.55526c.28418-.499.48925-.85938,3.34716-1.1709,2.25928-.24121,6.37208-.24414,6.41358-.24414.041,0,4.14453.00293,6.41162.24414,2.84912.31006,3.044.65283,3.3374,1.167l1.95911,3.47845-.00012.00007.03772.0672c-1.52039.47583-5.97309.92352-11.756.92352-5.772,0-10.21827-.4458-11.74708-.9209Zm-7.44355,7.96289c.14264-.55487.45826-1.05762,1.68427-1.05762a2.98942,2.98942,0,0,0,1.231-.26923c.00738-.00323.016-.00177.02337-.00518A4.02529,4.02529,0,0,0,18.563,50.83236c1.58227.63342,5.05865,1.18823,12.7168,1.18823,7.65234,0,11.13378-.55371,12.71777-1.18653a4.01307,4.01307,0,0,0,1.55566,1.355c.00739.00341.01667.002.02417.00518a2.9287,2.9287,0,0,0,1.21265.2663c1.18646,0,1.54175.442,1.71008,1.15582l.03571.43531c-.39545.1018-.91254.24438-1.55341.444-1.03662.32275-2.19336.74267-3.44824,1.25195a8.7082,8.7082,0,0,0-1.87939.98975,2.34813,2.34813,0,0,0-.89759,1.1333H21.819a2.35125,2.35125,0,0,0-.90833-1.13672c-.02294-.01709-.04687-.03272-.07128-.04737a9.00057,9.00057,0,0,0-1.80079-.94189,38.7145,38.7145,0,0,0-4.99841-1.69342Zm-.72515,2.40954-.24335-1.09723c.1.02.93.19,2.31.62.9.28,2.03.68,3.36,1.22a7.89886,7.89886,0,0,1,1.67.87c.88995.66.53,1.08.31,1.24006l-2.95276.33056A4.09539,4.09539,0,0,1,13.3606,55.92769Zm29.45922,5.46253h-23.06a18.45788,18.45788,0,0,1-5.68311-.75635.714.714,0,0,1,.18555-.13232l6.41565-.63086H41.892l6.40826.63006a.66973.66973,0,0,1,.19293.13312A18.40543,18.40543,0,0,1,42.81982,61.39022Zm6.52686-5.46253A4.0954,4.0954,0,0,1,44.89276,59.111l-2.95282-.33056c-.22-.16-.57995-.58.31-1.24006a7.89873,7.89873,0,0,1,1.67-.87c1.33-.54,2.46-.94,3.36-1.22,1.38-.43,2.21-.6,2.31-.62Z"/></svg>