<svg xmlns="http://www.w3.org/2000/svg" viewBox="0 0 103 103"><defs><style>.a{fill:#fff;stroke:#e6e6e6;stroke-width:3px;}.a,.b{stroke-miterlimit:10;}.b{fill:none;stroke:#ed1c24;stroke-width:2px;}.c{fill:#394563;}</style></defs><title>Asset 321</title><circle class="a" cx="51.5" cy="51.5" r="50"/><path class="b" d="M68.46244,37.95119a17.78973,17.78973,0,0,1,.102,10.70015"/><path class="b" d="M71.88751,36.2429A21.49505,21.49505,0,0,1,71.998,50.36812"/><path class="b" d="M75.23609,34.56861a25.35087,25.35087,0,0,1,.119,17.4823"/><path class="b" d="M34.43557,48.65134a17.78973,17.78973,0,0,1,.102-10.70015"/><path class="b" d="M31.002,50.36812a21.49505,21.49505,0,0,1,.11048-14.12522"/><path class="b" d="M27.64493,52.05091a25.35087,25.35087,0,0,1,.119-17.4823"/><path class="c" d="M61.19759,30.0084H41.9746a2.51265,2.51265,0,0,0-2.51267,2.51267V70.479a2.51268,2.51268,0,0,0,2.51267,2.51267h19.223A2.51272,2.51272,0,0,0,63.7103,70.479V32.52107A2.51269,2.51269,0,0,0,61.19759,30.0084ZM51.58612,70.83394a2.15771,2.15771,0,1,1,2.15768-2.15768A2.15769,2.15769,0,0,1,51.58612,70.83394Zm10.56606-6.25216H41.02V35.095H62.15218Z"/></svg>