<svg xmlns="http://www.w3.org/2000/svg" viewBox="0 0 103 103"><defs><style>.a{fill:#fff;stroke:#e6e6e6;}.a,.b,.c,.d,.f{stroke-miterlimit:10;}.a,.b,.d,.f{stroke-width:3px;}.b,.c,.d,.f{fill:none;}.b{stroke:#ed1c24;}.c{stroke:#21c876;stroke-width:2px;}.d{stroke:#394563;}.e{fill:#394563;}.f{stroke:red;}</style></defs><title>Asset 451</title><circle class="a" cx="51.5" cy="51.5" r="50"/><polyline class="b" points="43.743 35.529 43.743 27.989 76.943 27.989 76.943 74.229 43.743 74.229 43.743 66.689"/><polyline class="c" points="66.296 59.343 59.788 65.851 56.535 62.597"/><line class="d" x1="48.73278" y1="34.24967" x2="71.76395" y2="34.24967"/><line class="d" x1="48.73278" y1="40.69927" x2="71.76395" y2="40.69927"/><line class="d" x1="48.73278" y1="46.68975" x2="71.76395" y2="46.68975"/><rect class="d" x="25.55844" y="35.52828" width="23.05703" height="31.16212"/><path class="e" d="M46.01635,47.75808H28.08223V38.35949H46.01635ZM30.40587,45.43443H43.69271V40.68314H30.40587Z"/><line class="d" x1="28.08223" y1="52.36805" x2="31.67334" y2="52.36805"/><line class="d" x1="42.42524" y1="52.36805" x2="46.01635" y2="52.36805"/><line class="d" x1="35.40061" y1="52.36805" x2="38.99172" y2="52.36805"/><line class="d" x1="28.08223" y1="57.02087" x2="31.67334" y2="57.02087"/><line class="d" x1="42.42524" y1="57.02087" x2="46.01635" y2="57.02087"/><line class="d" x1="35.40061" y1="57.02087" x2="38.99172" y2="57.02087"/><line class="d" x1="28.08223" y1="61.6737" x2="31.67334" y2="61.6737"/><line class="d" x1="42.42524" y1="61.6737" x2="46.01635" y2="61.6737"/><line class="d" x1="35.40061" y1="61.6737" x2="38.99172" y2="61.6737"/><line class="f" x1="42.2746" y1="43.05878" x2="39.81881" y2="43.05878"/><line class="f" x1="38.20187" y1="43.05878" x2="35.74607" y2="43.05878"/><line class="f" x1="34.12914" y1="43.05878" x2="31.67334" y2="43.05878"/></svg>