<svg xmlns="http://www.w3.org/2000/svg" viewBox="0 0 103 103"><defs><style>.a{fill:#fff;stroke:#e6e6e6;}.a,.b,.c,.d{stroke-miterlimit:10;}.a,.b,.d{stroke-width:3px;}.b,.c,.d{fill:none;}.b{stroke:#ed1c24;}.c{stroke:#21c876;stroke-width:2px;}.d{stroke:#394563;}.e{fill:#ed1c24;}</style></defs><title>Asset 461</title><circle class="a" cx="51.5" cy="51.5" r="50"/><polyline class="b" points="45.17 70.039 45.17 74.229 78.37 74.229 78.37 27.989 45.17 27.989 45.17 32.179"/><polyline class="c" points="67.723 59.342 61.215 65.849 57.962 62.596"/><line class="d" x1="50.15957" y1="34.24859" x2="73.19074" y2="34.24859"/><line class="d" x1="73.18987" y1="40.69935" x2="55.56987" y2="40.69935"/><line class="d" x1="73.18987" y1="46.68935" x2="57.97987" y2="46.68935"/><circle class="d" cx="38.35642" cy="51.10826" r="20.11632"/><path class="e" d="M36.03828,58.14946a1.92187,1.92187,0,0,1,.6641-1.50618,2.61754,2.61754,0,0,1,3.30808,0,2.04,2.04,0,0,1,0,3.01235,2.61754,2.61754,0,0,1-3.30808,0A1.92186,1.92186,0,0,1,36.03828,58.14946Zm4.04125-3.84291H36.69529l-.533-12.33449h4.45033Z"/></svg>