<svg xmlns="http://www.w3.org/2000/svg" viewBox="0 0 103 103"><defs><style>.a{fill:#fff;stroke:#e6e6e6;}.a,.b,.c{stroke-miterlimit:10;stroke-width:3px;}.b,.c{fill:none;}.b{stroke:#394563;}.c{stroke:#ed1c24;}</style></defs><title>Asset 501</title><circle class="a" cx="51.5" cy="51.5" r="50"/><path class="b" d="M20.74521,61.41847v-13.43a6.44219,6.44219,0,0,1,6.44-6.44h24.26a6.42744,6.42744,0,0,1,5.64,3.34"/><polyline class="b" points="31.344 41.553 39.316 51.062 47.287 41.553"/><line class="b" x1="39.31556" y1="51.06208" x2="39.31556" y2="61.42186"/><circle class="b" cx="39.31556" cy="27.30368" r="9.20343"/><path class="b" d="M32.00177,21.71522c1.99,2.28,6.07,3.84,10.78,3.84a18.84347,18.84347,0,0,0,5.4-.75"/><line class="b" x1="28.1067" y1="61.42186" x2="28.1067" y2="54.8822"/><rect class="c" x="45.13311" y="54.14429" width="37.13378" height="22.8907"/><rect class="c" x="49.50168" y="54.14429" width="28.39662" height="12.45388"/><line class="c" x1="63.69999" y1="62.8442" x2="63.69999" y2="69.6696"/><rect class="c" x="57.08518" y="44.75803" width="13.22963" height="9.18381"/></svg>