<svg xmlns="http://www.w3.org/2000/svg" viewBox="0 0 103 103"><defs><style>.a{fill:#fff;stroke:#e6e6e6;stroke-width:3px;}.a,.b{stroke-miterlimit:10;}.b{fill:none;stroke:#394563;stroke-width:2px;}.c{fill:#ed1c24;}</style></defs><title>Asset 471</title><circle class="a" cx="51.5" cy="51.5" r="50"/><line class="b" x1="55.92076" y1="44.5989" x2="63.16968" y2="44.5989"/><rect class="b" x="34.51484" y="67.49077" width="29.95862" height="4.33443"/><path class="b" d="M58.726,37.45448V31.96626H40.46918v5.48822h4.54354v2.85887h-1.59v8.571h1.59v2.85887h-.13756a4.406,4.406,0,0,0-4.406,4.406V64.0933H58.726V56.14922a4.406,4.406,0,0,0-4.406-4.406h-.13757V48.88438h1.59039v-8.571H54.18246V37.45448Z"/><rect class="b" x="63.16968" y="42.60447" width="24.68468" height="4.02878"/><line class="b" x1="54.18246" y1="40.31335" x2="45.01272" y2="40.31335"/><line class="b" x1="54.18246" y1="48.88438" x2="45.01272" y2="48.88438"/><polygon class="c" points="27.502 40.086 28.171 41.443 29.669 41.661 28.585 42.717 28.841 44.209 27.502 43.504 26.162 44.209 26.418 42.717 25.334 41.661 26.832 41.443 27.502 40.086"/><polygon class="c" points="25.334 55.622 26.004 56.979 27.502 57.197 26.418 58.253 26.674 59.745 25.334 59.04 23.995 59.745 24.251 58.253 23.167 57.197 24.665 56.979 25.334 55.622"/><polygon class="c" points="67.461 51.5 68.131 52.857 69.629 53.075 68.545 54.131 68.801 55.622 67.461 54.918 66.122 55.622 66.378 54.131 65.294 53.075 66.792 52.857 67.461 51.5"/><polygon class="c" points="34.515 44.201 35.759 46.722 38.54 47.126 36.528 49.088 37.003 51.858 34.515 50.55 32.027 51.858 32.502 49.088 30.49 47.126 33.271 46.722 34.515 44.201"/><polygon class="c" points="73.654 57.281 74.898 59.802 77.679 60.206 75.667 62.168 76.142 64.938 73.654 63.63 71.166 64.938 71.641 62.168 69.629 60.206 72.41 59.802 73.654 57.281"/></svg>